<svg width="699" height="463" viewBox="0 0 699 463" fill="none" xmlns="http://www.w3.org/2000/svg">
<path d="M74 75C74 33.5786 107.579 0 149 0H549C590.421 0 624 33.5786 624 75V133H74V75Z" fill="#243357"/>
<path d="M0 248C0 235.297 10.2975 225 23 225H109C121.703 225 132 235.297 132 248V430C132 442.703 121.703 453 109 453H23C10.2975 453 0 442.703 0 430V248Z" fill="#343434"/>
<path d="M566.5 258C566.5 245.297 576.797 235 589.5 235H675.5C688.203 235 698.5 245.297 698.5 258V440C698.5 452.703 688.203 463 675.5 463H589.5C576.797 463 566.5 452.703 566.5 440V258Z" fill="#343434"/>
<path fill-rule="evenodd" clip-rule="evenodd" d="M28.6156 225.042C20.6406 222.952 15.8824 214.08 19.3383 205.996L66.3673 95.9964C68.5707 90.8428 73.6353 87.5 79.2402 87.5H618.167C623.818 87.5 628.916 90.8983 631.09 96.1154L676.923 206.115C680.263 214.132 675.58 222.859 667.736 225.004C676.569 225.208 683.042 233.485 681.043 242.148L653.004 363.648C651.538 370 645.882 374.5 639.363 374.5H65.4731C59.2636 374.5 53.796 370.41 52.0428 364.453L16.2836 242.953C13.749 234.341 19.8484 225.712 28.6156 225.042Z" fill="#FF9000"/>
<g opacity="0.78">
<mask id="path-4-inside-1" fill="white">
<path fill-rule="evenodd" clip-rule="evenodd" d="M634.787 121.5H633.567H613.786C609.489 121.5 605.895 124.512 605 128.541L626.586 208.499H663.811C662.657 195.003 659.138 178.742 653.296 161.775C647.974 146.319 641.493 132.513 634.787 121.6V121.5Z"/>
</mask>
<path fill-rule="evenodd" clip-rule="evenodd" d="M634.787 121.5H633.567H613.786C609.489 121.5 605.895 124.512 605 128.541L626.586 208.499H663.811C662.657 195.003 659.138 178.742 653.296 161.775C647.974 146.319 641.493 132.513 634.787 121.6V121.5Z" fill="#A62039"/>
<path d="M634.787 121.5H637.787V118.5H634.787V121.5ZM605 128.541L602.072 127.89L601.912 128.61L602.104 129.322L605 128.541ZM626.586 208.499L623.69 209.281L624.289 211.499H626.586V208.499ZM663.811 208.499V211.499H667.079L666.8 208.243L663.811 208.499ZM653.296 161.775L656.132 160.798L653.296 161.775ZM634.787 121.6H631.787V122.448L632.231 123.171L634.787 121.6ZM633.567 124.5H634.787V118.5H633.567V124.5ZM613.786 124.5H633.567V118.5H613.786V124.5ZM607.929 129.191C608.525 126.506 610.925 124.5 613.786 124.5V118.5C608.052 118.5 603.264 122.519 602.072 127.89L607.929 129.191ZM629.483 207.717L607.897 127.759L602.104 129.322L623.69 209.281L629.483 207.717ZM663.811 205.499H626.586V211.499H663.811V205.499ZM666.8 208.243C665.621 194.46 662.04 177.956 656.132 160.798L650.459 162.752C656.236 179.529 659.692 195.546 660.822 208.754L666.8 208.243ZM656.132 160.798C650.749 145.165 644.179 131.155 637.343 120.029L632.231 123.171C638.806 133.87 645.198 147.473 650.459 162.752L656.132 160.798ZM637.787 121.6V121.5H631.787V121.6H637.787Z" fill="#090808" mask="url(#path-4-inside-1)"/>
</g>
<g opacity="0.78">
<mask id="path-6-inside-2" fill="white">
<path fill-rule="evenodd" clip-rule="evenodd" d="M598.787 121.5H597.567H577.786C573.489 121.5 569.895 124.512 569 128.541L590.586 208.499H627.811C626.657 195.003 623.138 178.742 617.296 161.775C611.974 146.319 605.493 132.513 598.787 121.6V121.5Z"/>
</mask>
<path fill-rule="evenodd" clip-rule="evenodd" d="M598.787 121.5H597.567H577.786C573.489 121.5 569.895 124.512 569 128.541L590.586 208.499H627.811C626.657 195.003 623.138 178.742 617.296 161.775C611.974 146.319 605.493 132.513 598.787 121.6V121.5Z" fill="#A62039"/>
<path d="M598.787 121.5H601.787V118.5H598.787V121.5ZM569 128.541L566.072 127.89L565.912 128.61L566.104 129.322L569 128.541ZM590.586 208.499L587.69 209.281L588.289 211.499H590.586V208.499ZM627.811 208.499V211.499H631.079L630.8 208.243L627.811 208.499ZM617.296 161.775L620.132 160.798L617.296 161.775ZM598.787 121.6H595.787V122.448L596.231 123.171L598.787 121.6ZM597.567 124.5H598.787V118.5H597.567V124.5ZM577.786 124.5H597.567V118.5H577.786V124.5ZM571.929 129.191C572.525 126.506 574.925 124.5 577.786 124.5V118.5C572.052 118.5 567.264 122.519 566.072 127.89L571.929 129.191ZM593.483 207.717L571.897 127.759L566.104 129.322L587.69 209.281L593.483 207.717ZM627.811 205.499H590.586V211.499H627.811V205.499ZM630.8 208.243C629.621 194.46 626.04 177.956 620.132 160.798L614.459 162.752C620.236 179.529 623.692 195.546 624.822 208.754L630.8 208.243ZM620.132 160.798C614.749 145.165 608.179 131.155 601.343 120.029L596.231 123.171C602.806 133.87 609.198 147.473 614.459 162.752L620.132 160.798ZM601.787 121.6V121.5H595.787V121.6H601.787Z" fill="#090808" mask="url(#path-6-inside-2)"/>
</g>
<g opacity="0.78">
<mask id="path-8-inside-3" fill="white">
<path fill-rule="evenodd" clip-rule="evenodd" d="M562.787 121.5H561.567H541.786C537.489 121.5 533.895 124.512 533 128.541L554.586 208.499H591.811C590.657 195.003 587.138 178.742 581.296 161.775C575.974 146.319 569.493 132.513 562.787 121.6V121.5Z"/>
</mask>
<path fill-rule="evenodd" clip-rule="evenodd" d="M562.787 121.5H561.567H541.786C537.489 121.5 533.895 124.512 533 128.541L554.586 208.499H591.811C590.657 195.003 587.138 178.742 581.296 161.775C575.974 146.319 569.493 132.513 562.787 121.6V121.5Z" fill="#A62039"/>
<path d="M562.787 121.5H565.787V118.5H562.787V121.5ZM533 128.541L530.072 127.89L529.912 128.61L530.104 129.322L533 128.541ZM554.586 208.499L551.69 209.281L552.289 211.499H554.586V208.499ZM591.811 208.499V211.499H595.079L594.8 208.243L591.811 208.499ZM581.296 161.775L584.132 160.798L581.296 161.775ZM562.787 121.6H559.787V122.448L560.231 123.171L562.787 121.6ZM561.567 124.5H562.787V118.5H561.567V124.5ZM541.786 124.5H561.567V118.5H541.786V124.5ZM535.929 129.191C536.525 126.506 538.925 124.5 541.786 124.5V118.5C536.052 118.5 531.264 122.519 530.072 127.89L535.929 129.191ZM557.483 207.717L535.897 127.759L530.104 129.322L551.69 209.281L557.483 207.717ZM591.811 205.499H554.586V211.499H591.811V205.499ZM594.8 208.243C593.621 194.46 590.04 177.956 584.132 160.798L578.459 162.752C584.236 179.529 587.692 195.546 588.822 208.754L594.8 208.243ZM584.132 160.798C578.749 145.165 572.179 131.155 565.343 120.029L560.231 123.171C566.806 133.87 573.198 147.473 578.459 162.752L584.132 160.798ZM565.787 121.6V121.5H559.787V121.6H565.787Z" fill="#090808" mask="url(#path-8-inside-3)"/>
</g>
<g opacity="0.78">
<mask id="path-10-inside-4" fill="white">
<path fill-rule="evenodd" clip-rule="evenodd" d="M61.0238 121.5H62.2439H82.0247C86.3223 121.5 89.9164 124.512 90.8108 128.541L69.2247 208.499H32C33.1542 195.003 36.6728 178.742 42.5153 161.775C47.8375 146.319 54.3184 132.513 61.0238 121.6V121.5Z"/>
</mask>
<path fill-rule="evenodd" clip-rule="evenodd" d="M61.0238 121.5H62.2439H82.0247C86.3223 121.5 89.9164 124.512 90.8108 128.541L69.2247 208.499H32C33.1542 195.003 36.6728 178.742 42.5153 161.775C47.8375 146.319 54.3184 132.513 61.0238 121.6V121.5Z" fill="#A62039"/>
<path d="M61.0238 121.5H58.0238V118.5H61.0238V121.5ZM90.8108 128.541L93.7395 127.89L93.8993 128.61L93.7071 129.322L90.8108 128.541ZM69.2247 208.499L72.121 209.281L71.5222 211.499H69.2247V208.499ZM32 208.499V211.499H28.7325L29.0109 208.243L32 208.499ZM42.5153 161.775L39.6788 160.798L42.5153 161.775ZM61.0238 121.6H64.0238V122.448L63.5799 123.171L61.0238 121.6ZM62.2439 124.5H61.0238V118.5H62.2439V124.5ZM82.0247 124.5H62.2439V118.5H82.0247V124.5ZM87.8821 129.191C87.286 126.506 84.886 124.5 82.0247 124.5V118.5C87.7586 118.5 92.5468 122.519 93.7395 127.89L87.8821 129.191ZM66.3284 207.717L87.9145 127.759L93.7071 129.322L72.121 209.281L66.3284 207.717ZM32 205.499H69.2247V211.499H32V205.499ZM29.0109 208.243C30.1897 194.46 33.7707 177.956 39.6788 160.798L45.3519 162.752C39.5749 179.529 36.1188 195.546 34.9891 208.754L29.0109 208.243ZM39.6788 160.798C45.0619 145.165 51.6316 131.155 58.4678 120.029L63.5799 123.171C57.0051 133.87 50.6131 147.473 45.3519 162.752L39.6788 160.798ZM58.0238 121.6V121.5H64.0238V121.6H58.0238Z" fill="#090808" mask="url(#path-10-inside-4)"/>
</g>
<g opacity="0.78">
<mask id="path-12-inside-5" fill="white">
<path fill-rule="evenodd" clip-rule="evenodd" d="M97.0238 121.5H98.2439H118.025C122.322 121.5 125.916 124.512 126.811 128.541L105.225 208.499H68C69.1542 195.003 72.6728 178.742 78.5153 161.775C83.8375 146.319 90.3184 132.513 97.0238 121.6V121.5Z"/>
</mask>
<path fill-rule="evenodd" clip-rule="evenodd" d="M97.0238 121.5H98.2439H118.025C122.322 121.5 125.916 124.512 126.811 128.541L105.225 208.499H68C69.1542 195.003 72.6728 178.742 78.5153 161.775C83.8375 146.319 90.3184 132.513 97.0238 121.6V121.5Z" fill="#A62039"/>
<path d="M97.0238 121.5H94.0238V118.5H97.0238V121.5ZM126.811 128.541L129.739 127.89L129.899 128.61L129.707 129.322L126.811 128.541ZM105.225 208.499L108.121 209.281L107.522 211.499H105.225V208.499ZM68 208.499V211.499H64.7325L65.0109 208.243L68 208.499ZM78.5153 161.775L75.6788 160.798L78.5153 161.775ZM97.0238 121.6H100.024V122.448L99.5799 123.171L97.0238 121.6ZM98.2439 124.5H97.0238V118.5H98.2439V124.5ZM118.025 124.5H98.2439V118.5H118.025V124.5ZM123.882 129.191C123.286 126.506 120.886 124.5 118.025 124.5V118.5C123.759 118.5 128.547 122.519 129.739 127.89L123.882 129.191ZM102.328 207.717L123.914 127.759L129.707 129.322L108.121 209.281L102.328 207.717ZM68 205.499H105.225V211.499H68V205.499ZM65.0109 208.243C66.1897 194.46 69.7707 177.956 75.6788 160.798L81.3519 162.752C75.5749 179.529 72.1188 195.546 70.9891 208.754L65.0109 208.243ZM75.6788 160.798C81.0619 145.165 87.6316 131.155 94.4678 120.029L99.5799 123.171C93.0051 133.87 86.6131 147.473 81.3519 162.752L75.6788 160.798ZM94.0238 121.6V121.5H100.024V121.6H94.0238Z" fill="#090808" mask="url(#path-12-inside-5)"/>
</g>
<g opacity="0.78">
<mask id="path-14-inside-6" fill="white">
<path fill-rule="evenodd" clip-rule="evenodd" d="M133.024 121.5H134.244H154.025C158.322 121.5 161.916 124.512 162.811 128.541L141.225 208.499H104C105.154 195.003 108.673 178.742 114.515 161.775C119.837 146.319 126.318 132.513 133.024 121.6V121.5Z"/>
</mask>
<path fill-rule="evenodd" clip-rule="evenodd" d="M133.024 121.5H134.244H154.025C158.322 121.5 161.916 124.512 162.811 128.541L141.225 208.499H104C105.154 195.003 108.673 178.742 114.515 161.775C119.837 146.319 126.318 132.513 133.024 121.6V121.5Z" fill="#A62039"/>
<path d="M133.024 121.5H130.024V118.5H133.024V121.5ZM162.811 128.541L165.739 127.89L165.899 128.61L165.707 129.322L162.811 128.541ZM141.225 208.499L144.121 209.281L143.522 211.499H141.225V208.499ZM104 208.499V211.499H100.732L101.011 208.243L104 208.499ZM114.515 161.775L111.679 160.798L114.515 161.775ZM133.024 121.6H136.024V122.448L135.58 123.171L133.024 121.6ZM134.244 124.5H133.024V118.5H134.244V124.5ZM154.025 124.5H134.244V118.5H154.025V124.5ZM159.882 129.191C159.286 126.506 156.886 124.5 154.025 124.5V118.5C159.759 118.5 164.547 122.519 165.739 127.89L159.882 129.191ZM138.328 207.717L159.914 127.759L165.707 129.322L144.121 209.281L138.328 207.717ZM104 205.499H141.225V211.499H104V205.499ZM101.011 208.243C102.19 194.46 105.771 177.956 111.679 160.798L117.352 162.752C111.575 179.529 108.119 195.546 106.989 208.754L101.011 208.243ZM111.679 160.798C117.062 145.165 123.632 131.155 130.468 120.029L135.58 123.171C129.005 133.87 122.613 147.473 117.352 162.752L111.679 160.798ZM130.024 121.6V121.5H136.024V121.6H130.024Z" fill="#090808" mask="url(#path-14-inside-6)"/>
</g>
<path d="M15 223.5C15 219.082 18.5817 215.5 23 215.5H672C676.418 215.5 680 219.082 680 223.5V226.5C680 230.918 676.418 234.5 672 234.5H23C18.5817 234.5 15 230.918 15 226.5V223.5Z" fill="#243357"/>
<rect x="146" y="50.5" width="399" height="59" rx="8" fill="#A26310"/>
<rect x="274.5" y="133" width="142" height="64" fill="#2D2A2A" stroke="black"/>
</svg>
