<svg width="93" height="94" viewBox="0 0 93 94" fill="none" xmlns="http://www.w3.org/2000/svg">
<path d="M92.065 75.958C92.022 75.904 87.786 70.486 85.699 66.712C84.68 64.871 83.549 63.933 82.454 63.024C81.142 61.936 79.902 60.909 78.871 58.133C78.843 58.057 78.791 57.999 78.748 57.935C78.899 57.139 78.964 56.432 78.914 55.853C78.622 52.477 76.344 52.113 75.378 52.113C73.932 52.113 72.598 52.805 72.451 52.884C72.294 52.969 72.162 53.093 72.069 53.245L71.033 54.944C54.944 44.55 43.943 34.678 39.192 26.348C39.012 23.401 37.697 6.10003 31.575 3.39503C30.069 2.73103 28.453 2.95403 26.762 4.04203C25.417 2.10803 23.148 -0.112969 20.194 0.878031C19.095 1.24703 18.263 1.98503 17.789 3.01403C17.163 4.37003 17.226 6.03103 17.468 7.40803C15.906 6.77803 13.919 6.68403 11.968 8.24903C9.89299 9.91403 10.09 12.374 10.814 14.429C10.354 14.186 9.92199 14.005 9.56799 13.939C8.05899 13.655 5.80799 14.375 4.61599 16.263C3.94499 17.325 3.23299 19.399 4.66999 22.543C4.10799 22.46 3.56799 22.508 3.13299 22.785C1.83899 23.606 0.952987 25.158 0.762987 26.938C0.507987 29.33 1.52199 31.784 3.61899 33.85C9.30999 39.455 15.325 44.726 26.231 47.638C28.508 49.396 54.104 69.179 59.319 73.864C58.364 75.02 56.838 77.241 57.303 79.192C57.491 79.982 58.085 81.047 59.844 81.64C61.12 82.071 62.197 82.28 63.132 82.28C63.606 82.28 64.025 82.212 64.423 82.115C66.389 82.338 71.279 83.411 72.556 85.999C74.47 89.883 78.279 92.972 78.441 93.101C78.626 93.249 78.846 93.322 79.066 93.322C79.359 93.322 79.649 93.194 79.846 92.948C80.192 92.518 80.123 91.888 79.693 91.543C79.658 91.514 76.071 88.607 74.349 85.115C73.032 82.445 69.503 81.16 67.038 80.569C67.651 79.957 68.223 79.22 68.843 78.419L69.139 78.037C70.997 75.648 75.843 67.092 77.94 60.893C78.969 62.73 80.126 63.693 81.177 64.565C82.173 65.391 83.114 66.171 83.949 67.682C86.114 71.596 90.313 76.967 90.491 77.194C90.688 77.445 90.982 77.577 91.279 77.577C91.495 77.577 91.712 77.508 91.895 77.364C92.33 77.021 92.406 76.393 92.065 75.958ZM26.936 45.755C16.38 42.979 10.547 37.866 5.02099 32.424C3.36699 30.796 2.56099 28.923 2.74999 27.15C2.89799 25.762 3.59699 24.858 4.13799 24.504C4.47499 24.434 5.63099 24.893 6.52799 25.456C6.93499 25.711 7.46499 25.641 7.79099 25.291C8.11799 24.94 8.14999 24.408 7.86899 24.02C5.86999 21.275 5.31499 18.9 6.30599 17.331C6.99199 16.246 8.34099 15.745 9.20099 15.906C9.80799 16.019 11.641 17.264 12.991 18.352C13.384 18.669 13.952 18.644 14.315 18.292C14.678 17.94 14.721 17.374 14.417 16.971C14.379 16.921 10.668 11.859 13.22 9.81003C15.776 7.75603 18.158 10.139 18.419 10.414C18.747 10.768 19.28 10.835 19.686 10.578C20.093 10.32 20.258 9.80903 20.08 9.36203C19.691 8.38603 18.847 5.49203 19.607 3.85103C19.856 3.31403 20.245 2.97203 20.832 2.77403C22.889 2.08303 24.668 4.38803 25.603 5.94703L29.113 15.505C29.304 16.024 29.879 16.292 30.396 16.099C30.915 15.909 31.18 15.334 30.99 14.816L28.17 7.13803C28.229 6.92703 28.235 6.69903 28.142 6.48103C28.119 6.42703 28 6.15303 27.796 5.75703C28.916 5.02203 29.895 4.83903 30.767 5.22503C35.175 7.17203 36.912 21.383 37.209 26.694C37.218 26.846 37.261 26.994 37.335 27.127C42.256 35.914 53.25 45.846 69.992 56.654L60.495 72.235C54.514 66.942 28.471 46.84 27.292 45.931C27.187 45.849 27.065 45.789 26.936 45.755ZM67.561 76.807L67.262 77.193C65.606 79.334 64.803 80.28 63.132 80.28C62.417 80.28 61.55 80.105 60.483 79.746C59.406 79.383 59.288 78.891 59.25 78.729C58.958 77.51 60.59 75.355 61.426 74.502C61.48 74.447 61.528 74.387 61.567 74.321L72.193 56.887C72.194 56.886 72.195 56.885 72.196 56.884C72.197 56.883 72.197 56.882 72.197 56.881L73.623 54.541C73.977 54.386 74.691 54.114 75.379 54.114C75.826 54.114 76.757 54.114 76.923 56.027C77.29 60.263 69.948 73.736 67.561 76.807Z" fill="black"/>
</svg>
