<svg width="90" height="93" viewBox="0 0 90 93" fill="none" xmlns="http://www.w3.org/2000/svg">
<path d="M0.276886 90.5745C0.521889 90.0655 6.13589 78.4505 12.5609 72.1465C11.7959 71.1615 11.3539 69.8995 11.8039 68.3995C12.3419 66.6105 13.6949 65.6245 15.6129 65.6245C16.6579 65.6245 17.5059 65.9235 17.6549 65.9795C17.7539 66.0225 18.1389 66.1915 18.7409 66.4615C20.7119 63.5035 35.4559 41.3215 37.0889 37.1905C38.0359 34.7935 38.7409 30.5915 39.4239 26.5275C39.9969 23.1155 40.5899 19.5875 41.3379 17.0785C42.8489 12.0035 47.1179 2.46149 52.4339 2.58049C53.9679 2.62149 54.6929 3.31849 55.0319 3.89649C56.1659 5.83349 54.6529 9.04349 52.8629 12.4415C52.6639 12.8185 52.4849 13.1605 52.3389 13.4515C51.7539 14.6235 51.1099 16.9495 51.1249 17.9415C51.9169 17.3625 53.1279 15.2545 54.1209 13.5265C55.3519 11.3825 56.7479 8.95349 58.3389 7.28549C58.8059 6.79549 59.2819 6.27949 59.7609 5.75949C62.9089 2.34649 66.1669 -1.18351 68.9499 0.382494C69.8019 0.860494 70.3669 1.57449 70.5849 2.44849C71.0289 4.22749 69.9049 6.04849 69.7179 6.33049C69.6429 6.42449 62.2129 15.8385 60.0049 20.2265C59.9189 20.5115 59.9749 21.2625 60.1049 21.7505C60.8479 20.9625 62.0129 19.9145 63.4629 18.6095C66.0059 16.3215 69.4879 13.1895 72.5669 9.71949C75.3999 6.52749 77.9189 5.04549 80.0559 5.32249C81.4529 5.50149 82.3449 6.41149 82.7189 7.02449C83.5459 7.86549 83.9519 8.82049 83.9259 9.86349C83.8779 11.8445 82.2459 14.1725 78.7919 17.1895C74.3149 21.1005 67.5239 28.1645 67.0569 30.1065C67.6139 30.0125 69.1319 29.2735 73.1649 25.5605L73.4329 25.3145C74.2549 24.5615 84.3099 17.0865 88.0099 19.2015C89.2659 19.9205 89.9909 21.1865 89.9999 22.6755C90.0159 25.0545 88.2579 27.5725 85.4159 29.2455C84.5319 29.7655 83.2819 30.4505 81.8379 31.2395C77.5039 33.6115 70.9539 37.1945 68.1769 39.8325C67.4889 40.4855 67.1039 40.9405 66.8869 41.2405C67.9239 41.1085 72.9369 40.4555 75.8879 39.8665C77.7079 39.5025 82.0879 38.8745 83.4929 40.8765C84.1709 41.8435 84.0429 43.1135 83.1129 44.6495C78.6339 52.0485 62.7689 50.3755 60.4939 50.0915C56.7559 51.6765 45.9329 68.2425 39.7949 78.6355C40.2529 79.0795 40.6519 79.5135 40.9589 79.9325C41.6209 80.8365 42.0629 83.2445 41.3149 84.7195C40.8739 85.5895 40.0859 86.0685 39.0969 86.0685C38.4869 86.0685 37.8179 85.8905 37.0509 85.5225C36.7119 85.3595 36.2779 85.1455 35.7779 84.8955C34.9579 86.0055 33.2019 88.1215 29.4779 92.5475C29.2799 92.7825 28.9969 92.9035 28.7109 92.9035C28.4839 92.9035 28.2559 92.8265 28.0679 92.6695C27.6449 92.3145 27.5899 91.6835 27.9459 91.2605C30.2719 88.4955 32.8119 85.4305 33.9619 83.9765C27.7809 80.8185 16.4409 74.8245 15.4549 74.3035C15.0249 74.1275 14.5199 73.8615 14.0199 73.5135C7.81989 79.5595 2.13589 91.3185 2.07789 91.4405C1.90689 91.7985 1.54989 92.0075 1.17689 92.0075C1.03189 92.0075 0.884888 91.9765 0.744888 91.9085C0.246887 91.6695 0.0368881 91.0725 0.276886 90.5745ZM46.7879 63.7505C56.4469 49.2335 59.1879 48.3915 60.0889 48.1135C60.2279 48.0705 60.3739 48.0575 60.5189 48.0795C60.6859 48.1025 77.3549 50.3025 81.4019 43.6145C81.9379 42.7295 81.9869 42.2135 81.8559 42.0255C81.4109 41.3915 78.9099 41.3035 76.2799 41.8275C72.9219 42.4985 67.1869 43.2195 66.9599 43.2475C66.1599 43.3595 65.1649 43.1855 64.7649 42.3555C64.1689 41.1225 65.4579 39.6545 66.7979 38.3815C69.7639 35.5645 76.1869 32.0495 80.8779 29.4845C82.2989 28.7065 83.5309 28.0335 84.4009 27.5215C87.0699 25.9505 88.0089 23.9345 88.0009 22.6855C87.9979 22.1425 87.8249 21.3975 87.0179 20.9355C85.1679 19.8765 77.1369 24.6325 74.7859 26.7875L74.5209 27.0305C70.9459 30.3225 68.2089 32.4355 66.4559 32.0695C65.8739 31.9465 65.4179 31.5695 65.1729 31.0075C63.7429 27.7315 76.9159 16.1725 77.4779 15.6825C80.3969 13.1315 81.8949 11.1565 81.9279 9.81349C81.9409 9.28749 81.7239 8.83849 81.2239 8.35649C81.1519 8.28749 81.0819 8.19149 81.0339 8.10349C81.0179 8.07549 80.6359 7.39749 79.7719 7.30149C78.9639 7.20949 77.1429 7.57549 74.0639 11.0455C70.9099 14.5995 67.3789 17.7755 64.8009 20.0955C63.2949 21.4505 62.1049 22.5215 61.4389 23.2525C60.3399 24.4565 59.3669 23.9405 59.0949 23.7525C57.9069 22.9365 57.7579 20.2515 58.1959 19.3775C60.5159 14.7585 67.8389 5.48149 68.0919 5.16949C68.2989 4.84649 68.8459 3.74149 68.6439 2.93149C68.5909 2.71849 68.4629 2.40249 67.9709 2.12549C66.5629 1.33549 63.4809 4.67549 61.2299 7.11449C60.7429 7.64249 60.2589 8.16649 59.7849 8.66449C58.3609 10.1585 57.0289 12.4765 55.8539 14.5215C54.2479 17.3175 52.9789 19.5265 51.4529 19.9895C50.4119 20.3045 49.8219 19.7735 49.6169 19.5305C48.1599 17.8045 50.5239 12.6085 50.5499 12.5575C50.7009 12.2545 50.8879 11.8995 51.0939 11.5085C51.9549 9.87349 53.9719 6.04449 53.3059 4.90649C53.1859 4.70249 52.8749 4.59249 52.3819 4.57849C48.7629 4.49549 44.8879 12.1655 43.2539 17.6495C42.5409 20.0405 41.9589 23.5065 41.3969 26.8585C40.6969 31.0245 39.9739 35.3315 38.9489 37.9245C37.2639 42.1915 23.1769 63.4115 20.5829 67.3035C25.0489 69.3795 33.5039 73.5335 38.2629 77.3015C39.2819 75.5935 42.8169 69.7195 46.7879 63.7505ZM16.2489 72.4665C16.2819 72.4795 16.3139 72.4945 16.3469 72.5115C16.5009 72.5925 29.9149 79.6855 35.9069 82.7205C35.9079 82.7205 35.9079 82.7205 35.9089 82.7215C35.9099 82.7215 35.9099 82.7225 35.9099 82.7225C36.7379 83.1415 37.4269 83.4855 37.9159 83.7205C38.5179 84.0085 38.8909 84.0695 39.0969 84.0695C39.3529 84.0695 39.4429 83.9865 39.5269 83.8235C39.9109 83.0835 39.6009 81.4785 39.3449 81.1155C35.6109 76.0215 17.0419 67.8955 16.9139 67.8385C16.9079 67.8365 16.3089 67.6255 15.6109 67.6255C14.5829 67.6255 13.9989 68.0425 13.7179 68.9775C13.3949 70.0525 13.9789 70.9035 14.6659 71.4965C14.6769 71.5075 14.6919 71.5115 14.7019 71.5225C14.7049 71.5255 14.7049 71.5295 14.7079 71.5325C15.4039 72.1165 16.1859 72.4405 16.2489 72.4665Z" fill="black"/>
</svg>
