<svg width="91" height="91" viewBox="0 0 91 91" fill="none" xmlns="http://www.w3.org/2000/svg">
<path d="M0.95298 84.961C1.02798 84.801 2.84598 80.988 5.78197 78.47C8.60397 76.05 9.13298 74.316 9.09798 73.853C9.02998 72.959 9.45098 72.059 9.79098 71.487C9.41598 70.649 9.24798 69.548 9.35998 68.043C9.50898 66.027 10.786 64.871 12.862 64.871C13.116 64.871 13.372 64.893 13.626 64.923C17.264 61.165 36.708 40.488 39.219 37.816C39.418 28.502 43.922 20.486 48.116 16.057C49.614 14.475 51.16 13.812 52.716 14.088C54.678 14.435 56.027 16.237 56.691 17.359C58.09 16.822 59.381 16.811 60.542 17.322C61.616 17.796 62.371 18.646 62.881 19.455C64.864 15.864 67.794 11.77 70.425 8.09302C71.697 6.31402 72.9 4.63402 73.915 3.12602C76.018 0.00302219 77.794 -0.124979 78.915 0.319021C80.593 0.983021 81.406 3.35902 81.113 5.16202C80.762 7.32202 78.294 10.946 75.436 15.142C74.67 16.267 73.883 17.422 73.118 18.579C71.934 20.368 70.781 21.911 69.853 23.15C69.609 23.477 69.355 23.816 69.115 24.142C71.088 23.028 74.051 21.174 76.427 19.688C78.383 18.464 80.406 17.199 82.031 16.233C85.272 14.305 87.602 13.775 89.156 14.613C90.088 15.115 90.634 16.089 90.693 17.355C90.835 20.41 86.012 23.959 83.932 25.342C81.51 26.953 76.402 30.054 72.078 32.647C73.083 32.573 73.971 32.679 74.599 33.065C75.248 33.464 75.621 34.127 75.649 34.932C75.767 38.386 72.769 41.206 66.737 43.314C62.968 44.632 59.234 45.236 58.321 45.372C50.236 50.221 43.95 60.764 39.352 68.477C38.804 69.395 38.281 70.269 37.771 71.112C38.288 71.778 38.937 72.891 38.697 74.115C38.488 75.179 37.687 76.002 36.325 76.569C35.939 77.565 34.689 78.47 33.284 79.48C32.564 79.998 31.82 80.533 31.511 80.888C30.181 82.413 27.934 88.113 27.18 90.18C27.033 90.585 26.649 90.837 26.241 90.837C26.127 90.837 26.012 90.817 25.898 90.776C25.379 90.587 25.112 90.013 25.301 89.494C25.591 88.698 28.19 81.654 30.003 79.574C30.464 79.044 31.267 78.467 32.116 77.855C32.379 77.666 32.721 77.42 33.062 77.162C32.686 77.18 32.295 77.192 31.869 77.192C26.169 77.192 17.339 75.549 14.723 74.66L14.325 74.525C13.142 74.125 12.063 73.755 11.209 73.162C11.137 73.36 11.084 73.551 11.095 73.701C11.22 75.377 9.72198 77.726 7.08698 79.985C4.48097 82.219 2.77998 85.777 2.76398 85.812C2.59298 86.173 2.23398 86.385 1.85898 86.385C1.71598 86.385 1.57098 86.354 1.43298 86.289C0.931976 86.056 0.717979 85.461 0.95298 84.961ZM57.472 43.549C57.586 43.482 57.713 43.438 57.844 43.42C62.299 42.814 73.822 40.12 73.647 35C73.641 34.825 73.598 34.799 73.549 34.769C72.525 34.139 68.171 35.416 64.747 37.004C64.261 37.228 63.689 37.034 63.441 36.562C63.193 36.09 63.359 35.507 63.818 35.236C63.962 35.151 78.257 26.715 82.823 23.677C86.341 21.337 88.755 18.775 88.693 17.448C88.668 16.895 88.504 16.534 88.206 16.374C87.9 16.207 86.618 15.832 83.052 17.952C81.447 18.907 79.433 20.166 77.487 21.384C68.333 27.111 67.444 27.478 66.558 26.952C66.252 26.771 66.045 26.478 65.975 26.128C65.796 25.232 66.515 24.272 68.25 21.951C69.162 20.732 70.297 19.215 71.449 17.474C72.22 16.31 73.011 15.147 73.782 14.015C76.278 10.351 78.858 6.56202 79.138 4.84002C79.307 3.79802 78.814 2.43002 78.178 2.17802C77.715 1.99102 76.786 2.44102 75.573 4.24202C74.541 5.77402 73.331 7.46502 72.05 9.25602C69.001 13.517 65.545 18.347 63.727 22.17C63.547 22.548 63.154 22.774 62.732 22.735C62.315 22.697 61.965 22.401 61.857 21.996C61.851 21.975 61.258 19.818 59.726 19.148C58.904 18.789 57.89 18.922 56.71 19.543C56.463 19.673 56.173 19.694 55.911 19.601C55.648 19.509 55.436 19.31 55.326 19.055C55.025 18.359 53.836 16.316 52.367 16.055C51.512 15.91 50.573 16.368 49.568 17.43C45.577 21.646 41.286 29.323 41.213 38.225C41.211 38.476 41.114 38.718 40.942 38.902C40.067 39.833 21.25 59.85 15.873 65.469C16.283 65.614 16.603 65.749 16.76 65.82L36.05 70.089C36.56 69.246 37.084 68.372 37.632 67.453C42.372 59.502 48.865 48.612 57.472 43.549ZM14.963 72.632L15.365 72.769C17.805 73.599 26.453 75.194 31.866 75.194C33.92 75.194 34.936 74.967 35.428 74.779C35.968 74.57 36.633 74.219 36.731 73.735C36.832 73.228 36.371 72.53 36.022 72.132L16.225 67.75C16.152 67.733 16.08 67.709 16.013 67.677C15.995 67.669 14.287 66.87 12.862 66.87C11.688 66.87 11.415 67.375 11.354 68.19C11.253 69.553 11.365 70.381 11.762 70.963C11.783 70.993 11.811 71.018 11.829 71.05C12.366 71.751 13.358 72.09 14.963 72.632Z" fill="black"/>
</svg>
