<svg width="419" height="694" viewBox="0 0 419 694" fill="none" xmlns="http://www.w3.org/2000/svg">
<g id="base-number">
<g id="base-number-base" opacity="0.05">
<g id="Group 67" filter="url(#filter0_f)">
<path id="Subtract" fill-rule="evenodd" clip-rule="evenodd" d="M18.431 39.1055C13.7039 47.3185 11 56.8435 11 67V290.862L50.4388 327.682L89 291.681V104.989L18.431 39.1055ZM112.904 89L38.0098 19.0784C46.4665 13.9515 56.3886 11 67 11H352C362.612 11 372.534 13.9516 380.99 19.0785L306.096 89H112.904ZM330 291.681V104.989L400.569 39.1058C405.296 47.3187 408 56.8436 408 67V290.862L368.562 327.682L330 291.681ZM112.551 308H306.449L348.046 346.835L301.812 390H117.189L70.9539 346.835L112.551 308ZM89 401.989L50.4388 365.988L11 402.808V627C11 637.068 13.6569 646.515 18.3079 654.68L89 588.681V401.989ZM112.551 605L37.796 674.791C46.299 679.998 56.299 683 67 683H352C362.701 683 372.701 679.998 381.204 674.791L306.449 605H112.551ZM330 588.681L400.692 654.679C405.343 646.515 408 637.068 408 627V402.808L368.562 365.988L330 401.989V588.681Z" fill="#66E0A3"/>
</g>
</g>
<g id="base-number-9">
<g id="Group 67_2">
<path id="Subtract_2" fill-rule="evenodd" clip-rule="evenodd" d="M11 67C11 56.8435 13.7039 47.3185 18.431 39.1055L89 104.989V291.681L50.4388 327.682L11 290.862V67ZM38.0098 19.0784L112.904 89H306.096L380.99 19.0785C372.534 13.9516 362.612 11 352 11H67C56.3886 11 46.4665 13.9515 38.0098 19.0784ZM330 104.989V291.681L368.562 327.682L408 290.862V67C408 56.8436 405.296 47.3187 400.569 39.1058L330 104.989ZM306.449 308H112.551L70.9539 346.835L117.189 390H301.812L348.046 346.835L306.449 308ZM37.796 674.791L112.551 605H306.449L381.204 674.791C372.701 679.998 362.701 683 352 683H67C56.299 683 46.299 679.998 37.796 674.791ZM400.692 654.679L330 588.681V401.989L368.562 365.988L408 402.808V627C408 637.068 405.343 646.515 400.692 654.679Z" fill="#66E0A3"/>
</g>
</g>
<g id="base-number-8">
<g id="Group 67_3">
<path id="Subtract_3" fill-rule="evenodd" clip-rule="evenodd" d="M18.431 39.1055C13.7039 47.3185 11 56.8435 11 67V290.862L50.4388 327.682L89 291.681V104.989L18.431 39.1055ZM112.904 89L38.0098 19.0784C46.4665 13.9515 56.3886 11 67 11H352C362.612 11 372.534 13.9516 380.99 19.0785L306.096 89H112.904ZM330 291.681V104.989L400.569 39.1058C405.296 47.3187 408 56.8436 408 67V290.862L368.562 327.682L330 291.681ZM112.551 308H306.449L348.046 346.835L301.812 390H117.189L70.9539 346.835L112.551 308ZM89 401.989L50.4388 365.988L11 402.808V627C11 637.068 13.6569 646.515 18.3079 654.68L89 588.681V401.989ZM112.551 605L37.796 674.791C46.299 679.998 56.299 683 67 683H352C362.701 683 372.701 679.998 381.204 674.791L306.449 605H112.551ZM330 588.681L400.692 654.679C405.343 646.515 408 637.068 408 627V402.808L368.562 365.988L330 401.989V588.681Z" fill="#66E0A3"/>
</g>
</g>
<g id="base-number-7">
<g id="Group 67_4">
<path id="Subtract_4" fill-rule="evenodd" clip-rule="evenodd" d="M38.0098 19.0784L112.904 89H306.096L380.99 19.0785C372.534 13.9516 362.611 11 352 11H66.9999C56.3885 11 46.4664 13.9515 38.0098 19.0784ZM330 104.989V291.681L368.562 327.682L408 290.862V67C408 56.8436 405.296 47.3187 400.569 39.1058L330 104.989ZM400.692 654.679L330 588.681V401.989L368.562 365.988L408 402.808V627C408 637.068 405.343 646.515 400.692 654.679Z" fill="#66E0A3"/>
</g>
</g>
<g id="base-number-6">
<g id="Group 67_5">
<path id="Subtract_5" fill-rule="evenodd" clip-rule="evenodd" d="M11 67C11 56.8435 13.7039 47.3185 18.431 39.1055L89 104.989V291.681L50.4388 327.682L11 290.862V67ZM38.0098 19.0784L112.904 89H306.096L380.99 19.0785C372.534 13.9516 362.612 11 352 11H67C56.3886 11 46.4665 13.9515 38.0098 19.0784ZM306.449 308H112.551L70.9539 346.835L117.189 390H301.812L348.046 346.835L306.449 308ZM50.4388 365.988L89 401.989V588.681L18.3079 654.68C13.6569 646.515 11 637.068 11 627V402.808L50.4388 365.988ZM37.796 674.791L112.551 605H306.449L381.204 674.791C372.701 679.998 362.701 683 352 683H67C56.299 683 46.299 679.998 37.796 674.791ZM400.692 654.679L330 588.681V401.989L368.562 365.988L408 402.808V627C408 637.068 405.343 646.515 400.692 654.679Z" fill="#66E0A3"/>
</g>
</g>
<g id="base-number-5">
<g id="Group 67_6">
<path id="Subtract_6" fill-rule="evenodd" clip-rule="evenodd" d="M11 67C11 56.8435 13.7039 47.3185 18.431 39.1055L89 104.989V291.681L50.4388 327.682L11 290.862V67ZM38.0098 19.0784L112.904 89H306.096L380.99 19.0785C372.534 13.9516 362.612 11 352 11H67C56.3886 11 46.4665 13.9515 38.0098 19.0784ZM306.449 308H112.551L70.9539 346.835L117.189 390H301.812L348.046 346.835L306.449 308ZM37.796 674.791L112.551 605H306.449L381.204 674.791C372.701 679.998 362.701 683 352 683H67C56.299 683 46.299 679.998 37.796 674.791ZM400.692 654.679L330 588.681V401.989L368.562 365.988L408 402.808V627C408 637.068 405.343 646.515 400.692 654.679Z" fill="#66E0A3"/>
</g>
</g>
<g id="base-number-4">
<g id="Group 67_7">
<path id="Subtract_7" fill-rule="evenodd" clip-rule="evenodd" d="M11 67C11 56.8435 13.7039 47.3185 18.431 39.1055L89 104.989V291.681L50.4388 327.682L11 290.862V67ZM330 104.989V291.681L368.562 327.682L408 290.862V67C408 56.8436 405.296 47.3187 400.569 39.1058L330 104.989ZM306.449 308H112.551L70.9539 346.835L117.189 390H301.812L348.046 346.835L306.449 308ZM400.692 654.679L330 588.681V401.989L368.562 365.988L408 402.808V627C408 637.068 405.343 646.515 400.692 654.679Z" fill="#66E0A3"/>
</g>
</g>
<g id="base-number-3">
<g id="Group 67_8">
<path id="Subtract_8" fill-rule="evenodd" clip-rule="evenodd" d="M38.0097 19.0784L112.904 89H306.096L380.99 19.0785C372.534 13.9516 362.611 11 352 11H66.9999C56.3885 11 46.4664 13.9515 38.0097 19.0784ZM330 104.989V291.681L368.562 327.682L408 290.862V67C408 56.8436 405.296 47.3187 400.569 39.1058L330 104.989ZM306.449 308H112.551L70.9538 346.835L117.189 390H301.812L348.046 346.835L306.449 308ZM37.7959 674.791L112.551 605H306.449L381.204 674.791C372.701 679.998 362.701 683 352 683H66.9999C56.2989 683 46.2989 679.998 37.7959 674.791ZM400.692 654.679L330 588.681V401.989L368.562 365.988L408 402.808V627C408 637.068 405.343 646.515 400.692 654.679Z" fill="#66E0A3"/>
</g>
</g>
<g id="base-number-2">
<g id="Group 67_9">
<path id="Subtract_9" fill-rule="evenodd" clip-rule="evenodd" d="M38.0098 19.0784L112.904 89H306.096L380.99 19.0785C372.534 13.9516 362.612 11 352 11H67C56.3886 11 46.4665 13.9515 38.0098 19.0784ZM330 104.989V291.681L368.562 327.682L408 290.862V67C408 56.8436 405.296 47.3187 400.569 39.1058L330 104.989ZM306.449 308H112.551L70.9539 346.835L117.189 390H301.812L348.046 346.835L306.449 308ZM50.4388 365.988L89 401.989V588.681L18.3079 654.68C13.6569 646.515 11 637.068 11 627V402.808L50.4388 365.988ZM37.796 674.791L112.551 605H306.449L381.204 674.791C372.701 679.998 362.701 683 352 683H67C56.299 683 46.299 679.998 37.796 674.791Z" fill="#66E0A3"/>
</g>
</g>
<g id="base-number-1">
<g id="Group 67_10">
<path id="Subtract_10" fill-rule="evenodd" clip-rule="evenodd" d="M330 104.989V291.681L368.562 327.682L408 290.862V66.9997C408 56.8433 405.296 47.3184 400.569 39.1055L330 104.989ZM400.692 654.679L330 588.681V401.989L368.562 365.988L408 402.807V627C408 637.068 405.343 646.515 400.692 654.679Z" fill="#66E0A3"/>
</g>
</g>
<g id="base-number-0">
<g id="Group 67_11">
<path id="Subtract_11" fill-rule="evenodd" clip-rule="evenodd" d="M11 67C11 56.8435 13.7039 47.3185 18.431 39.1055L89 104.989V291.681L50.4388 327.682L11 290.862V67ZM38.0098 19.0784L112.904 89H306.096L380.99 19.0785C372.534 13.9516 362.612 11 352 11H67C56.3886 11 46.4665 13.9515 38.0098 19.0784ZM330 104.989V291.681L368.562 327.682L408 290.862V67C408 56.8436 405.296 47.3187 400.569 39.1058L330 104.989ZM50.4388 365.988L89 401.989V588.681L18.3079 654.68C13.6569 646.515 11 637.068 11 627V402.808L50.4388 365.988ZM37.796 674.791L112.551 605H306.449L381.204 674.791C372.701 679.998 362.701 683 352 683H67C56.299 683 46.299 679.998 37.796 674.791ZM400.692 654.679L330 588.681V401.989L368.562 365.988L408 402.808V627C408 637.068 405.343 646.515 400.692 654.679Z" fill="#66E0A3"/>
</g>
</g>
</g>
<defs>
<filter id="filter0_f" x="0" y="0" width="419" height="694" filterUnits="userSpaceOnUse" color-interpolation-filters="sRGB">
<feFlood flood-opacity="0" result="BackgroundImageFix"/>
<feBlend mode="normal" in="SourceGraphic" in2="BackgroundImageFix" result="shape"/>
<feGaussianBlur stdDeviation="5.5" result="effect1_foregroundBlur"/>
</filter>
</defs>
</svg>
