<?xml version="1.0" encoding="UTF-8"?>
<svg width="192px" height="158px" viewBox="0 0 192 158" version="1.1" xmlns="http://www.w3.org/2000/svg" xmlns:xlink="http://www.w3.org/1999/xlink">
    <!-- Generator: Sketch 61.2 (89653) - https://sketch.com -->
    <title>Group</title>
    <desc>Created with Sketch.</desc>
    <g id="Page-1" stroke="none" stroke-width="1" fill="none" fill-rule="evenodd">
        <g id="r" transform="translate(-102.000000, -16.000000)" fill="#E4EC0B">
            <g id="Group" transform="translate(102.000000, 16.000000)">
                <g id="Group-2">
                    <path d="M9,0 C13.9705627,-9.13077564e-16 18,4.02943725 18,9 L18,95 L18,95 L0,95 L0,9 C-6.08718376e-16,4.02943725 4.02943725,9.13077564e-16 9,0 Z" id="Rectangle"></path>
                    <rect id="Rectangle-Copy-3" x="87" y="83" width="18" height="75"></rect>
                    <path d="M182,0 C186.970563,-9.13077564e-16 191,4.02943725 191,9 L191,95 L191,95 L173,95 L173,9 C173,4.02943725 177.029437,9.13077564e-16 182,0 Z" id="Rectangle-Copy"></path>
                    <rect id="Rectangle-Copy-2" transform="translate(96.000000, 87.500000) rotate(-270.000000) translate(-96.000000, -87.500000) " x="87" y="-8" width="18" height="191"></rect>
                </g>
            </g>
        </g>
    </g>
</svg>