<svg width="86" height="52" viewBox="0 0 86 52" fill="none" xmlns="http://www.w3.org/2000/svg">
<g id="hand_full--right">
<g id="paper">
<path id="paper_2" fill-rule="evenodd" clip-rule="evenodd" d="M81.321 42.2609C72.9227 42.16 54.0248 42.0191 50.415 42.7348C47.8926 43.2355 43.9897 44.9119 40.211 46.535L40.1862 46.5456C37.0074 47.9114 33.7203 49.3232 31.2059 50.053C26.1211 51.5307 15.7874 53.1085 13.009 48.5749C12.2128 47.263 12.4062 46.2761 12.7086 45.6781C13.723 43.6759 17.2409 43.2097 21.0669 42.8746C21.4916 42.8378 21.8761 42.8031 22.1998 42.7683C23.5018 42.6255 25.8061 41.9074 26.6319 41.3576C25.717 41.0056 23.2923 41.1285 21.3027 41.2293L21.2979 41.2295C18.8288 41.3555 16.0308 41.4972 13.767 41.0628C13.1022 40.9355 12.4107 40.8147 11.7141 40.6936C7.14018 39.8951 2.40832 39.0675 2.21793 35.8799C2.15844 34.9048 2.45277 34.0431 3.0695 33.3866C4.32471 32.05 6.46427 32.009 6.80261 32.0135C6.92225 32.0256 18.8599 33.1746 23.7446 32.6548C24.0307 32.5728 24.6318 32.1191 24.9717 31.7455C23.9113 31.5484 22.4076 31.1391 20.5362 30.6296L20.5127 30.6232L20.5008 30.62C17.2013 29.7213 12.6881 28.4919 8.10909 27.7832C3.89152 27.1299 1.28159 25.8146 0.357315 23.868C-0.248657 22.5966 0.0333939 21.354 0.34623 20.7076C0.605461 19.5569 1.1885 18.6985 2.07944 18.1556C3.77087 17.1233 6.61176 17.2347 11.0185 18.5049C16.7307 20.151 26.3467 22.0352 28.2322 21.3763C27.8516 20.9589 26.4084 20.0829 21.103 18.7028L20.7511 18.6107C19.6729 18.3274 7.94396 13.9216 7.71857 9.66574C7.64294 8.22048 8.3147 6.92545 9.56165 6.11161C11.553 4.80997 14.6219 4.92448 17.5673 6.40788C18.4831 6.8695 19.7359 7.54947 21.1811 8.33623L21.2022 8.34768C25.5433 10.707 32.0871 14.2635 35.8025 15.1682C36.7241 15.393 37.3151 15.4703 37.6848 15.4903C37.0123 14.69 33.7488 10.8291 31.6557 8.66707C30.3642 7.33408 27.4646 3.99182 28.3869 1.72657C28.8327 0.632952 29.9697 0.0528786 31.7646 0.00302028C40.4104 -0.237876 47.5945 14.0059 48.5876 16.0723C51.7235 18.2065 69.2012 18.4592 81.321 18.1021V20.0947C78.2389 20.178 72.9575 20.28 67.4925 20.199C50.0633 19.9393 47.867 18.092 47.1447 17.4844L47.144 17.4838C47.0326 17.3903 46.9426 17.2746 46.8826 17.1408C46.8115 16.9879 39.635 1.78282 31.821 2.00191C30.7867 2.0305 30.3264 2.26871 30.2393 2.48065C29.9472 3.19806 31.2275 5.34833 33.0921 7.27567C35.4745 9.73544 39.1861 14.1665 39.3326 14.3422C39.8599 14.9541 40.2524 15.8848 39.7712 16.6705C39.0573 17.8393 37.1252 17.5505 35.3294 17.1132C31.355 16.1451 24.922 12.6485 20.2255 10.0936L20.0578 10.0025C18.7051 9.26757 17.5335 8.63097 16.6675 8.19472C13.9015 6.80154 11.6982 7.10374 10.6525 7.78678C10.1976 8.08333 9.66496 8.63217 9.71352 9.56079C9.82495 11.6895 18.172 15.866 21.2568 16.6756L21.6046 16.7668C26.308 17.9898 29.5665 19.1467 30.208 20.8186C30.4197 21.3745 30.3497 21.962 30.0099 22.4723C28.03 25.4484 11.1793 20.6327 10.463 20.4256C6.73778 19.3529 4.26623 19.1629 3.11929 19.8624C2.67004 20.1363 2.41006 20.5619 2.27557 21.2432C2.25655 21.3411 2.21375 21.4519 2.16576 21.5399L2.16547 21.5405C2.14668 21.5766 1.78998 22.2614 2.17486 23.0352C2.53503 23.7643 3.82878 25.097 8.41328 25.8066C13.0984 26.5322 17.6703 27.777 21.0147 28.6875L21.0375 28.6937C22.9921 29.2261 24.5369 29.6466 25.5121 29.8107C27.1194 30.0827 27.2124 31.1801 27.2017 31.5106C27.1589 32.9512 24.9823 34.5304 24.0103 34.6354C18.8709 35.1861 7.1063 34.0529 6.707 34.0091C6.32336 34.01 5.09818 34.1485 4.52659 34.7569C4.37621 34.9168 4.17986 35.1955 4.21339 35.7591C4.31162 37.3702 8.78614 38.1527 12.0553 38.7245L12.0578 38.7249C12.7654 38.8484 13.4681 38.9716 14.1434 39.1004C16.1705 39.4886 18.8405 39.3533 21.196 39.2338C24.4163 39.07 26.9605 38.9407 28.1761 39.9729C29.0046 40.6775 28.8777 41.4611 28.7844 41.765C28.1222 43.9245 22.4738 44.7506 22.4169 44.7564C22.0804 44.7935 21.6807 44.8285 21.2404 44.8671L21.2377 44.8673C19.3953 45.0289 15.0881 45.4068 14.4923 46.5823C14.3857 46.7936 14.4617 47.1147 14.7169 47.5367C16.6067 50.6242 25.1532 49.7288 30.6485 48.133C33.0447 47.4377 36.2737 46.0502 39.3961 44.7077L39.4098 44.7018C43.287 43.0363 47.2932 41.3154 50.025 40.7737C53.8526 40.0133 72.8521 40.155 81.321 40.2594V42.2609Z" fill="black"/>
</g>
<g id="scissors">
<path id="Subtract" fill-rule="evenodd" clip-rule="evenodd" d="M80.321 40.8375C70.3146 40.099 57.9276 39.2094 55.5922 39.0424C48.2417 44.766 39.1812 46.3311 33.0988 45.8729C30.9262 45.7093 29.4363 44.9284 28.6684 43.5473C27.6993 41.8063 28.2458 39.6227 28.6971 38.3995C27.3977 37.6532 26.5744 36.6587 26.2381 35.4356C25.928 34.3034 26.1108 33.1813 26.4165 32.2751C22.3838 33.0024 17.3653 33.3134 12.8563 33.5928L12.842 33.5937L12.6668 33.6046C10.5489 33.7365 8.54836 33.8612 6.78652 34.0211C3.0368 34.3607 1.81669 33.0638 1.45364 31.914C0.909744 30.1934 2.23975 28.0632 3.82325 27.1527C5.72029 26.0618 10.089 25.6891 15.1475 25.258L15.245 25.2497C16.5703 25.1366 17.9293 25.0205 19.2765 24.8871C21.4115 24.6765 23.336 24.5971 24.8828 24.535C24.9623 24.5317 25.0424 24.5283 25.1228 24.525C25.4548 24.5112 25.7925 24.4972 26.118 24.4814C24.0239 23.66 20.7482 22.5419 18.1059 21.64L18.0485 21.6204C15.8646 20.8755 13.6066 20.1046 11.8318 19.4537C8.29082 18.1564 6.40926 16.6835 6.07858 14.9492C5.87981 13.9094 6.29076 12.8712 7.23557 12.0265C9.51575 9.98832 15.3125 11.4898 17.698 12.2305C20.4761 13.0925 26.1052 15.0978 30.8455 16.8156C30.1538 16.0827 29.6756 15.327 29.5787 14.5962C29.4787 13.841 29.7576 13.1332 30.3643 12.6035C32.9692 10.3321 37.0487 10.878 42.4906 14.2268C45.8916 16.3186 48.7166 18.8339 49.3983 19.4563C58.2621 22.6677 70.4074 20.8902 79.2922 19.5893C79.6404 19.5385 79.9831 19.4887 80.321 19.4398V21.4622C80.0778 21.4975 79.832 21.5334 79.5834 21.5697C70.4244 22.9107 57.8792 24.7467 48.52 21.2654C48.3961 21.2192 48.2818 21.1485 48.1852 21.0582C44.9036 17.9849 35.5417 10.7466 31.6805 14.1135C31.5488 14.2284 31.5555 14.2782 31.5632 14.335L31.5632 14.3353C31.7207 15.5272 35.4591 18.0988 38.8518 19.7526C39.3323 19.9882 39.5428 20.5544 39.3331 21.0446C39.1235 21.5349 38.5665 21.774 38.0666 21.589L38.0639 21.588C37.7812 21.4833 22.3228 15.7594 17.1063 14.1415C13.071 12.8893 9.56013 12.6336 8.5699 13.5192C8.15672 13.8876 7.98019 14.2426 8.04414 14.5747C8.1077 14.9175 8.62588 16.1486 12.5209 17.5769C14.2746 18.2192 16.5222 18.9869 18.6951 19.7278C28.9146 23.2143 29.7603 23.6723 29.9115 24.6915C29.9642 25.0431 29.8675 25.3886 29.6402 25.6638C29.0591 26.367 27.8636 26.4161 24.9784 26.5346L24.9643 26.5352L24.9629 26.5352C23.442 26.5971 21.5495 26.674 19.4726 26.8791C18.0831 27.0156 16.6818 27.136 15.3171 27.2523C10.8997 27.6285 6.33236 28.0183 4.81989 28.8879C3.90495 29.4144 3.15491 30.6602 3.3608 31.3125C3.50794 31.7897 4.44329 32.2263 6.60586 32.0307C8.43058 31.8657 10.4872 31.7379 12.665 31.6025L12.7186 31.5992C17.9481 31.2752 23.8758 30.9079 27.9887 29.9055C28.3955 29.8065 28.8188 29.9688 29.0549 30.3207C29.2886 30.6682 29.2798 31.1265 29.0338 31.4658L29.0332 31.4668C28.9983 31.5162 27.7264 33.3194 28.1695 34.9162C28.4098 35.7804 29.1529 36.4831 30.3793 37.0065C30.636 37.116 30.8353 37.3277 30.9285 37.5897C31.0231 37.8517 31.0025 38.1418 30.8741 38.388C30.5242 39.0608 29.6898 41.2724 30.4144 42.5766C30.8415 43.3314 31.7894 43.7707 33.2475 43.8801C39.0365 44.3152 47.6997 42.7989 54.6511 37.2375C54.847 37.0807 55.096 37.0032 55.3473 37.0205C56.2281 37.0835 69.5917 38.0412 80.321 38.8331V40.8375Z" fill="black"/>
</g>
<g id="rock">
<path id="Subtract_2" fill-rule="evenodd" clip-rule="evenodd" d="M80.321 18.7105L80.321 20.7253C61.7372 22.8259 47.7459 22.1549 38.7196 18.7106C38.5776 18.656 38.4497 18.5699 38.3454 18.459C34.7132 14.5728 24.2713 4.77818 19.6398 6.10908C18.7231 6.37171 18.0889 7.13968 17.7004 8.42172C18.1108 8.59492 18.3777 8.72896 18.43 8.75567C18.6411 8.86339 18.7827 9.04224 18.8726 9.24202L25.9585 13.3279C26.4363 13.6037 26.6015 14.215 26.3249 14.6935C26.0518 15.173 25.4386 15.3358 24.9594 15.0599L16.1389 9.97319C14.4219 9.37584 11.579 8.74686 10.443 10.5957C10.1194 11.1239 10.04 11.6358 10.193 12.2076C10.6615 13.9543 13.1643 15.6347 14.0884 16.1345C14.5116 16.3635 14.7125 16.8615 14.5654 17.3204C14.4185 17.7779 13.9665 18.0681 13.4878 18.0066C13.1112 17.9628 9.75543 17.6605 9.11005 20.8754C8.46453 24.0838 14.5575 25.5907 14.6188 25.6047C15.1104 25.7192 15.4402 26.1812 15.3872 26.6841C15.3342 27.1869 14.9142 27.5702 14.4094 27.5787C12.6758 27.6089 10.4708 27.8282 9.93248 28.1305C9.16917 28.5582 8.45483 29.8074 8.62373 31.0799C8.86873 32.9194 10.817 34.3866 14.1108 35.2123C14.5752 35.3301 14.8916 35.7589 14.8656 36.2379C14.8397 36.7155 14.4778 37.109 14.0019 37.1741C12.9526 37.3169 11.771 37.7055 11.5572 37.9753C11.3689 38.5938 11.4118 39.7357 12.1878 40.8959C13.1792 42.378 14.9984 43.299 17.3114 43.4885C25.0411 44.1237 32.7956 44.3095 42.6774 39.6743C42.7983 39.6177 42.9304 39.5856 43.0635 39.5812C44.3278 39.532 68.2625 38.6124 80.321 38.4782V40.4764C68.7587 40.61 45.7477 41.4795 43.3432 41.5715C33.1056 46.3267 25.1101 46.1362 17.1493 45.4817C14.2155 45.24 11.8642 44.0063 10.5268 42.0068C9.53172 40.5187 9.21701 38.7596 9.68402 37.3C9.84037 36.8086 10.2241 36.4256 10.7087 36.1291C7.59048 34.6369 6.80764 32.5886 6.64198 31.3433C6.34679 29.1301 7.61311 27.1347 8.95341 26.3855C9.26743 26.2092 9.71503 26.0712 10.2239 25.9629C8.35098 24.8496 6.62299 23.0877 7.14851 20.4797C7.64294 18.0279 9.22836 16.8264 10.8311 16.3088C9.76275 15.407 8.64976 14.1724 8.26111 12.7304C7.96539 11.6367 8.13098 10.537 8.73803 9.54933C10.3702 6.89526 13.5354 7.1457 15.8074 7.76809C16.4081 5.8491 17.5055 4.64214 19.0871 4.18652C25.52 2.33884 37.6186 14.7757 39.6457 16.9224C48.299 20.1471 62.3175 20.7545 80.321 18.7105Z" fill="black"/>
</g>
<path id="sleeve" d="M80.321 29.5C80.321 31.3277 80.2265 33.0632 80.1257 34.6246C80.1028 34.9798 80.0797 35.3243 80.0573 35.6582C79.9802 36.8058 79.9117 37.8268 79.8887 38.7182C79.8584 39.8937 79.9151 40.6931 80.0689 41.174C80.1414 41.4009 80.2101 41.472 80.2243 41.4844C80.2289 41.4884 80.2299 41.4888 80.2333 41.49C80.2386 41.4918 80.264 41.5 80.321 41.5C80.5361 41.5 80.9095 41.3692 81.4036 40.8137C81.8859 40.2716 82.3804 39.4334 82.8243 38.3216C83.7092 36.1054 84.321 32.9843 84.321 29.5C84.321 25.9362 84.0671 23.041 83.5372 21.0668C83.2711 20.0756 82.9558 19.3965 82.631 18.9844C82.3273 18.5991 82.0652 18.5 81.821 18.5C81.607 18.5 81.4346 18.5663 81.2311 18.8935C80.9901 19.281 80.7794 19.9436 80.6281 20.9555C80.3274 22.9667 80.321 25.8776 80.321 29.5Z" stroke="black" stroke-width="2"/>
</g>
</svg>
