<svg width="86" height="52" viewBox="0 0 86 52" fill="none" xmlns="http://www.w3.org/2000/svg">
  <g id="hand_full--left">
  <g id="paper">
    <path id="paper_2" fill-rule="evenodd" clip-rule="evenodd" d="M4 42.2609C12.3984 42.16 31.2963 42.0191 34.906 42.7348C37.4285 43.2355 41.3313 44.9119 45.1101 46.535L45.1349 46.5456C48.3137 47.9114 51.6008 49.3232 54.1152 50.053C59.1999 51.5307 69.5336 53.1085 72.3121 48.5749C73.1083 47.263 72.9149 46.2761 72.6125 45.6781C71.5981 43.6759 68.0801 43.2097 64.2541 42.8746C63.8294 42.8378 63.445 42.8031 63.1213 42.7683C61.8192 42.6255 59.515 41.9074 58.6891 41.3576C59.604 41.0056 62.0288 41.1285 64.0183 41.2293L64.0232 41.2295C66.4922 41.3555 69.2902 41.4972 71.554 41.0628C72.2188 40.9355 72.9104 40.8147 73.6069 40.6936C78.1809 39.8951 82.9127 39.0675 83.1031 35.8799C83.1626 34.9048 82.8683 34.0431 82.2515 33.3866C80.9963 32.05 78.8568 32.009 78.5184 32.0135C78.3988 32.0256 66.4611 33.1746 61.5765 32.6548C61.2903 32.5728 60.6893 32.1191 60.3494 31.7455C61.4097 31.5484 62.9135 31.1391 64.7848 30.6296L64.8084 30.6232L64.8202 30.62C68.1197 29.7213 72.6329 28.4919 77.212 27.7832C81.4295 27.1299 84.0395 25.8146 84.9637 23.868C85.5697 22.5966 85.2877 21.354 84.9748 20.7076C84.7156 19.5569 84.1325 18.6985 83.2416 18.1556C81.5502 17.1233 78.7093 17.2347 74.3026 18.5049C68.5903 20.151 58.9743 22.0352 57.0888 21.3763C57.4694 20.9589 58.9127 20.0829 64.2181 18.7028L64.57 18.6107C65.6481 18.3274 77.3771 13.9216 77.6025 9.66574C77.6781 8.22048 77.0063 6.92545 75.7594 6.11161C73.768 4.80997 70.6992 4.92448 67.7538 6.40788C66.8379 6.8695 65.5852 7.54947 64.1399 8.33623L64.1189 8.34768C59.7778 10.707 53.234 14.2635 49.5185 15.1682C48.597 15.393 48.006 15.4703 47.6363 15.4903C48.3088 14.69 51.5722 10.8291 53.6653 8.66707C54.9568 7.33408 57.8565 3.99182 56.9342 1.72657C56.4883 0.632952 55.3513 0.0528786 53.5564 0.00302028C44.9107 -0.237876 37.7265 14.0059 36.7334 16.0723C33.5975 18.2065 16.1198 18.4592 4 18.1021V20.0947C7.08216 20.178 12.3636 20.28 17.8286 20.199C35.2578 19.9393 37.454 18.092 38.1764 17.4844L38.1771 17.4838C38.2885 17.3903 38.3785 17.2746 38.4385 17.1408C38.5096 16.9879 45.686 1.78282 53.5001 2.00191C54.5343 2.0305 54.9947 2.26871 55.0818 2.48065C55.3738 3.19806 54.0936 5.34833 52.2289 7.27567C49.8465 9.73544 46.1349 14.1665 45.9885 14.3422C45.4611 14.9541 45.0687 15.8848 45.5499 16.6705C46.2637 17.8393 48.1959 17.5505 49.9917 17.1132C53.966 16.1451 60.399 12.6485 65.0956 10.0936L65.2633 10.0025C66.6159 9.26757 67.7876 8.63097 68.6535 8.19472C71.4195 6.80154 73.6228 7.10374 74.6686 7.78678C75.1234 8.08333 75.6561 8.63217 75.6075 9.56079C75.4961 11.6895 67.149 15.866 64.0642 16.6756L63.7165 16.7668C59.013 17.9898 55.7546 19.1467 55.1131 20.8186C54.9013 21.3745 54.9713 21.962 55.3112 22.4723C57.291 25.4484 74.1418 20.6327 74.858 20.4256C78.5833 19.3529 81.0548 19.1629 82.2018 19.8624C82.651 20.1363 82.911 20.5619 83.0455 21.2432C83.0645 21.3411 83.1073 21.4519 83.1553 21.5399L83.1556 21.5405C83.1744 21.5766 83.5311 22.2614 83.1462 23.0352C82.786 23.7643 81.4923 25.097 76.9078 25.8066C72.2227 26.5322 67.6507 27.777 64.3063 28.6875L64.2836 28.6937C62.3289 29.2261 60.7842 29.6466 59.809 29.8107C58.2017 30.0827 58.1086 31.1801 58.1194 31.5106C58.1621 32.9512 60.3387 34.5304 61.3107 34.6354C66.4502 35.1861 78.2147 34.0529 78.614 34.0091C78.9977 34.01 80.2229 34.1485 80.7945 34.7569C80.9448 34.9168 81.1412 35.1955 81.1077 35.7591C81.0094 37.3702 76.5349 38.1527 73.2658 38.7245L73.2632 38.7249C72.5556 38.8484 71.853 38.9716 71.1777 39.1004C69.1506 39.4886 66.4805 39.3533 64.125 39.2338C60.9048 39.07 58.3605 38.9407 57.145 39.9729C56.3164 40.6775 56.4434 41.4611 56.5367 41.765C57.1988 43.9245 62.8472 44.7506 62.9042 44.7564C63.2407 44.7935 63.6404 44.8285 64.0806 44.8671L64.0834 44.8673C65.9257 45.0289 70.233 45.4068 70.8288 46.5823C70.9353 46.7936 70.8594 47.1147 70.6042 47.5367C68.7143 50.6242 60.1678 49.7288 54.6726 48.133C52.2764 47.4377 49.0473 46.0502 45.9249 44.7077L45.9112 44.7018C42.0341 43.0363 38.0279 41.3154 35.2961 40.7737C31.4685 40.0133 12.4689 40.155 4 40.2594V42.2609Z" fill="black"/>
  </g>
  <g id="scissors">
    <path id="Subtract" fill-rule="evenodd" clip-rule="evenodd" d="M5 40.8375C15.0065 40.099 27.3935 39.2094 29.7288 39.0424C37.0794 44.766 46.1399 46.3311 52.2223 45.8729C54.3948 45.7093 55.8848 44.9284 56.6527 43.5473C57.6217 41.8063 57.0752 39.6227 56.6239 38.3995C57.9234 37.6532 58.7467 36.6587 59.083 35.4356C59.3931 34.3034 59.2102 33.1813 58.9045 32.2751C62.9373 33.0024 67.9558 33.3134 72.4647 33.5928L72.4791 33.5937L72.6542 33.6046C74.7721 33.7365 76.7727 33.8612 78.5345 34.0211C82.2842 34.3607 83.5044 33.0638 83.8674 31.914C84.4113 30.1934 83.0813 28.0632 81.4978 27.1527C79.6008 26.0618 75.232 25.6891 70.1735 25.258L70.076 25.2497C68.7507 25.1366 67.3918 25.0205 66.0445 24.8871C63.9096 24.6765 61.985 24.5971 60.4383 24.535C60.3588 24.5317 60.2787 24.5283 60.1982 24.525C59.8662 24.5112 59.5285 24.4972 59.203 24.4814C61.2971 23.66 64.5728 22.5419 67.2152 21.64L67.2726 21.6204C69.4565 20.8755 71.7144 20.1046 73.4893 19.4537C77.0302 18.1564 78.9118 16.6835 79.2425 14.9492C79.4412 13.9094 79.0303 12.8712 78.0855 12.0265C75.8053 9.98832 70.0086 11.4898 67.6231 12.2305C64.8449 13.0925 59.2158 15.0978 54.4756 16.8156C55.1672 16.0827 55.6454 15.327 55.7423 14.5962C55.8424 13.841 55.5635 13.1332 54.9567 12.6035C52.3519 10.3321 48.2724 10.878 42.8304 14.2268C39.4295 16.3186 36.6044 18.8339 35.9227 19.4563C27.0589 22.6677 14.9136 20.8902 6.02882 19.5893C5.68069 19.5385 5.33796 19.4887 5 19.4398V21.4622C5.24328 21.4975 5.48909 21.5334 5.73766 21.5697C14.8967 22.9107 27.4418 24.7467 36.8011 21.2654C36.925 21.2192 37.0393 21.1485 37.1359 21.0582C40.4175 17.9849 49.7793 10.7466 53.6405 14.1135C53.7722 14.2284 53.7655 14.2782 53.7579 14.335L53.7578 14.3353C53.6003 15.5272 49.8619 18.0988 46.4693 19.7526C45.9888 19.9882 45.7783 20.5544 45.9879 21.0446C46.1975 21.5349 46.7545 21.774 47.2544 21.589L47.2572 21.588C47.5399 21.4833 62.9982 15.7594 68.2147 14.1415C72.2501 12.8893 75.7609 12.6336 76.7511 13.5192C77.1643 13.8876 77.3409 14.2426 77.2769 14.5747C77.2133 14.9175 76.6952 16.1486 72.8002 17.5769C71.0465 18.2192 68.7988 18.9869 66.6259 19.7278C56.4064 23.2143 55.5607 23.6723 55.4096 24.6915C55.3569 25.0431 55.4535 25.3886 55.6808 25.6638C56.262 26.367 57.4575 26.4161 60.3426 26.5346L60.3567 26.5352L60.3582 26.5352C61.8791 26.5971 63.7715 26.674 65.8484 26.8791C67.2379 27.0156 68.6392 27.136 70.0039 27.2523C74.4213 27.6285 78.9887 28.0183 80.5012 28.8879C81.4161 29.4144 82.1661 30.6602 81.9602 31.3125C81.8131 31.7897 80.8778 32.2263 78.7152 32.0307C76.8905 31.8657 74.8339 31.7379 72.656 31.6025L72.6024 31.5992C67.373 31.2752 61.4452 30.9079 57.3324 29.9055C56.9256 29.8065 56.5022 29.9688 56.2662 30.3207C56.0325 30.6682 56.0412 31.1265 56.2872 31.4658L56.2878 31.4668C56.3227 31.5162 57.5947 33.3194 57.1516 34.9162C56.9113 35.7804 56.1682 36.4831 54.9418 37.0065C54.6851 37.116 54.4858 37.3277 54.3925 37.5897C54.2979 37.8517 54.3185 38.1418 54.4469 38.388C54.7968 39.0608 55.6312 41.2724 54.9066 42.5766C54.4795 43.3314 53.5316 43.7707 52.0736 43.8801C46.2845 44.3152 37.6214 42.7989 30.67 37.2375C30.474 37.0807 30.2251 37.0032 29.9738 37.0205C29.0929 37.0835 15.7294 38.0412 5 38.8331V40.8375Z" fill="black"/>
  </g>
  <g id="rock">
    <path id="Subtract_2" fill-rule="evenodd" clip-rule="evenodd" d="M5 18.7105L5 20.7253C23.5839 22.8259 37.5752 22.1549 46.6014 18.7106C46.7435 18.656 46.8714 18.5699 46.9757 18.459C50.6078 14.5728 61.0498 4.77818 65.6812 6.10908C66.5979 6.37171 67.2321 7.13968 67.6207 8.42172C67.2103 8.59492 66.9433 8.72896 66.891 8.75567C66.6799 8.86339 66.5384 9.04224 66.4484 9.24202L59.3626 13.3279C58.8847 13.6037 58.7196 14.215 58.9962 14.6935C59.2693 15.173 59.8824 15.3358 60.3617 15.0599L69.1822 9.97319C70.8991 9.37584 73.7421 8.74686 74.878 10.5957C75.2017 11.1239 75.2811 11.6358 75.128 12.2076C74.6595 13.9543 72.1568 15.6347 71.2326 16.1345C70.8095 16.3635 70.6086 16.8615 70.7556 17.3204C70.9025 17.7779 71.3546 18.0681 71.8332 18.0066C72.2098 17.9628 75.5656 17.6605 76.211 20.8754C76.8565 24.0838 70.7635 25.5907 70.7023 25.6047C70.2106 25.7192 69.8809 26.1812 69.9339 26.6841C69.9869 27.1869 70.4068 27.5702 70.9117 27.5787C72.6453 27.6089 74.8502 27.8282 75.3886 28.1305C76.1519 28.5582 76.8662 29.8074 76.6973 31.0799C76.4523 32.9194 74.504 34.3866 71.2102 35.2123C70.7458 35.3301 70.4294 35.7589 70.4554 36.2379C70.4813 36.7155 70.8433 37.109 71.3191 37.1741C72.3685 37.3169 73.55 37.7055 73.7638 37.9753C73.9522 38.5938 73.9093 39.7357 73.1332 40.8959C72.1419 42.378 70.3227 43.299 68.0096 43.4885C60.2799 44.1237 52.5254 44.3095 42.6436 39.6743C42.5228 39.6177 42.3907 39.5856 42.2575 39.5812C40.9933 39.532 17.0586 38.6124 5 38.4782V40.4764C16.5624 40.61 39.5734 41.4795 41.9778 41.5715C52.2154 46.3267 60.2109 46.1362 68.1717 45.4817C71.1056 45.24 73.4568 44.0063 74.7943 42.0068C75.7893 40.5187 76.104 38.7596 75.637 37.3C75.4807 36.8086 75.097 36.4256 74.6124 36.1291C77.7306 34.6369 78.5134 32.5886 78.6791 31.3433C78.9743 29.1301 77.7079 27.1347 76.3676 26.3855C76.0536 26.2092 75.606 26.0712 75.0972 25.9629C76.9701 24.8496 78.6981 23.0877 78.1725 20.4797C77.6781 18.0279 76.0927 16.8264 74.4899 16.3088C75.5583 15.407 76.6713 14.1724 77.0599 12.7304C77.3557 11.6367 77.1901 10.537 76.583 9.54933C74.9508 6.89526 71.7856 7.1457 69.5136 7.76809C68.913 5.8491 67.8155 4.64214 66.234 4.18652C59.8011 2.33884 47.7024 14.7757 45.6754 16.9224C37.0221 20.1471 23.0035 20.7545 5 18.7105Z" fill="black"/>
  </g>
  <path id="sleeve" d="M5 29.5C5 31.3277 5.09451 33.0632 5.19532 34.6246C5.21825 34.9798 5.24137 35.3243 5.26378 35.6582C5.3408 36.8058 5.40933 37.8268 5.43231 38.7182C5.46262 39.8937 5.4059 40.6931 5.25219 41.174C5.17966 41.4009 5.1109 41.472 5.09674 41.4844C5.09216 41.4884 5.09117 41.4888 5.08772 41.49C5.08247 41.4918 5.05702 41.5 5 41.5C4.78497 41.5 4.41159 41.3692 3.9174 40.8137C3.43512 40.2716 2.94065 39.4334 2.49672 38.3216C1.61183 36.1054 1 32.9843 1 29.5C1 25.9362 1.25394 23.041 1.78383 21.0668C2.04991 20.0756 2.36521 19.3965 2.69001 18.9844C2.99371 18.5991 3.25588 18.5 3.5 18.5C3.71403 18.5 3.88644 18.5663 4.08997 18.8935C4.33096 19.281 4.54169 19.9436 4.69297 20.9555C4.99367 22.9667 5 25.8776 5 29.5Z" stroke="black" stroke-width="2"/>
</g>
</svg>
