<svg width="93" height="94" viewBox="0 0 93 94" fill="none" xmlns="http://www.w3.org/2000/svg">
<path d="M0.935013 75.958C0.978012 75.904 5.21402 70.486 7.30102 66.712C8.32001 64.871 9.45101 63.933 10.546 63.024C11.858 61.936 13.098 60.909 14.129 58.133C14.157 58.057 14.209 57.999 14.252 57.935C14.101 57.139 14.036 56.432 14.086 55.853C14.378 52.477 16.656 52.113 17.622 52.113C19.068 52.113 20.402 52.805 20.549 52.884C20.706 52.969 20.838 53.093 20.931 53.245L21.967 54.944C38.056 44.55 49.057 34.678 53.808 26.348C53.988 23.401 55.303 6.10003 61.425 3.39503C62.931 2.73103 64.547 2.95403 66.238 4.04203C67.583 2.10803 69.852 -0.112969 72.806 0.878031C73.905 1.24703 74.737 1.98503 75.211 3.01403C75.837 4.37003 75.774 6.03103 75.532 7.40803C77.094 6.77803 79.081 6.68403 81.032 8.24903C83.107 9.91403 82.91 12.374 82.186 14.429C82.646 14.186 83.078 14.005 83.432 13.939C84.941 13.655 87.192 14.375 88.384 16.263C89.055 17.325 89.767 19.399 88.33 22.543C88.892 22.46 89.432 22.508 89.867 22.785C91.161 23.606 92.047 25.158 92.237 26.938C92.492 29.33 91.478 31.784 89.381 33.85C83.69 39.455 77.675 44.726 66.769 47.638C64.492 49.396 38.896 69.179 33.681 73.864C34.636 75.02 36.162 77.241 35.697 79.192C35.509 79.982 34.915 81.047 33.156 81.64C31.88 82.071 30.803 82.28 29.868 82.28C29.394 82.28 28.975 82.212 28.577 82.115C26.611 82.338 21.721 83.411 20.444 85.999C18.53 89.883 14.721 92.972 14.559 93.101C14.374 93.249 14.154 93.322 13.934 93.322C13.641 93.322 13.351 93.194 13.154 92.948C12.808 92.518 12.877 91.888 13.307 91.543C13.342 91.514 16.929 88.607 18.651 85.115C19.968 82.445 23.497 81.16 25.962 80.569C25.349 79.957 24.777 79.22 24.157 78.419L23.861 78.037C22.003 75.648 17.157 67.092 15.06 60.893C14.031 62.73 12.874 63.693 11.823 64.565C10.827 65.391 9.88602 66.171 9.05102 67.682C6.88602 71.596 2.68702 76.967 2.50902 77.194C2.31202 77.445 2.01801 77.577 1.72102 77.577C1.50501 77.577 1.28802 77.508 1.10502 77.364C0.670021 77.021 0.594009 76.393 0.935013 75.958ZM66.064 45.755C76.62 42.979 82.453 37.866 87.979 32.424C89.633 30.796 90.439 28.923 90.25 27.15C90.102 25.762 89.403 24.858 88.862 24.504C88.525 24.434 87.369 24.893 86.472 25.456C86.065 25.711 85.535 25.641 85.209 25.291C84.882 24.94 84.85 24.408 85.131 24.02C87.13 21.275 87.685 18.9 86.694 17.331C86.008 16.246 84.659 15.745 83.799 15.906C83.192 16.019 81.359 17.264 80.009 18.352C79.616 18.669 79.048 18.644 78.685 18.292C78.322 17.94 78.279 17.374 78.583 16.971C78.621 16.921 82.332 11.859 79.78 9.81003C77.224 7.75603 74.842 10.139 74.581 10.414C74.253 10.768 73.72 10.835 73.314 10.578C72.907 10.32 72.742 9.80903 72.92 9.36203C73.309 8.38603 74.153 5.49203 73.393 3.85103C73.144 3.31403 72.755 2.97203 72.168 2.77403C70.111 2.08303 68.332 4.38803 67.397 5.94703L63.887 15.505C63.696 16.024 63.121 16.292 62.604 16.099C62.085 15.909 61.82 15.334 62.01 14.816L64.83 7.13803C64.771 6.92703 64.765 6.69903 64.858 6.48103C64.881 6.42703 65 6.15303 65.204 5.75703C64.084 5.02203 63.105 4.83903 62.233 5.22503C57.825 7.17203 56.088 21.383 55.791 26.694C55.782 26.846 55.739 26.994 55.665 27.127C50.744 35.914 39.75 45.846 23.008 56.654L32.505 72.235C38.486 66.942 64.529 46.84 65.708 45.931C65.813 45.849 65.935 45.789 66.064 45.755ZM25.439 76.807L25.738 77.193C27.394 79.334 28.197 80.28 29.868 80.28C30.583 80.28 31.45 80.105 32.517 79.746C33.594 79.383 33.712 78.891 33.75 78.729C34.042 77.51 32.41 75.355 31.574 74.502C31.52 74.447 31.472 74.387 31.433 74.321L20.807 56.887C20.806 56.886 20.805 56.885 20.804 56.884C20.803 56.883 20.803 56.882 20.803 56.881L19.377 54.541C19.023 54.386 18.309 54.114 17.621 54.114C17.174 54.114 16.243 54.114 16.077 56.027C15.71 60.263 23.052 73.736 25.439 76.807Z" fill="black"/>
</svg>
