<svg width="4706" height="2564" viewBox="0 0 4706 2564" fill="none" xmlns="http://www.w3.org/2000/svg">
<g id="Group 20">
<g id="porker--car">
<g id="porker">
<g id="Porker">
<g id="Union">
<path d="M2571.5 448.5C2535.9 525.3 2464.33 595.5 2433 621L1951 853.5C1959.33 872.5 1984.7 913.3 2019.5 924.5C2063 938.5 2082.5 924.5 2153.5 910.5C2210.3 899.3 2238.5 923.833 2245.5 937.5C2237.67 942 2218.8 951 2206 951C2190 951 2185.5 980 2185.5 1001.5C2185.5 1018.7 2205.83 1040.33 2216 1049C2225.83 1051.33 2245.5 1074 2245.5 1146C2245.5 1218 2225.83 1255 2216 1264.5L2110 1422.5H2513.5C2522 1408.67 2539 1379 2539 1371C2564.5 1333.5 2556.5 1227 2556.5 1217C2551.7 1151.4 2480.17 1040 2445 992.5L2465 980L2508.5 951L2532 943C2539 930.167 2552.4 900.8 2550 886C2547 867.5 2522 860.5 2513.5 853.5C2506.7 847.9 2465 843.833 2445 842.5C2430.17 844.5 2400.5 850.9 2400.5 860.5C2399.7 886.9 2377.17 904.833 2366 910.5V943C2362.67 939.167 2354.1 928.7 2346.5 917.5C2337 903.5 2337.5 860.5 2346.5 860.5C2464 825 2476.5 771.5 2486.5 771.5C2604 745 2701 667.5 2706 660.5C2716 638.5 2705 571 2696 555C2667.5 438.5 2571.5 442.5 2571.5 448.5Z" fill="url(#paint0_radial)"/>
<path d="M1544 264.094L1722 370.594L1775 295.594C1754 288.594 1731.5 243.594 1735 240.094C1769 220.894 1822.5 160.094 1845 132.094C1825.33 137.594 1778 148.594 1746 148.594C1714 148.594 1666.67 127.927 1647 117.594C1642.6 143.994 1576.5 226.261 1544 264.094Z" fill="url(#paint1_radial)"/>
<path d="M2439 418.093C2439 661.92 2536 797.593 2166 896.593C2042.95 896.593 1742 792.093 1681.95 535.765C1630.5 255.093 1983.86 146.765 2042.95 146.765C2123.5 124.594 2400.54 133.419 2439 418.093Z" fill="url(#paint2_radial)"/>
<path d="M1928 0.593559C1915.2 29.3936 1914.67 153.927 1916 212.594L1983.5 184.594C2004.5 147.761 2050.5 71.094 2066.5 59.094C2086.5 44.094 2186.5 48.594 2216.5 40.094C2246.5 31.594 2275 0.593559 2266.5 0.593559C2242 0.593559 2196 22.594 2186.5 20.5936C2177 18.5931 1932.5 -3.90644 1928 0.593559Z" fill="url(#paint3_radial)"/>
</g>
<g id="Vector 43" opacity="0.5">
<path d="M1734.5 241L1545 264L1707 362C1707 362 1742.17 307.167 1762 287C1762 287 1742.5 271.5 1734.5 241Z" fill="black"/>
<path d="M1545 264L1544.94 263.504L1544.74 264.428L1545 264ZM1734.5 241L1734.98 240.873L1734.87 240.451L1734.44 240.504L1734.5 241ZM1762 287L1762.36 287.351L1762.75 286.954L1762.31 286.609L1762 287ZM1707 362L1706.74 362.428L1707.16 362.68L1707.42 362.27L1707 362ZM1545.06 264.496L1734.56 241.496L1734.44 240.504L1544.94 263.504L1545.06 264.496ZM1734.02 241.127C1738.04 256.454 1744.95 268.013 1750.85 275.741C1753.81 279.606 1756.51 282.513 1758.48 284.457C1759.46 285.429 1760.26 286.16 1760.82 286.65C1761.09 286.894 1761.31 287.079 1761.46 287.202C1761.53 287.264 1761.59 287.311 1761.63 287.342C1761.65 287.358 1761.66 287.37 1761.67 287.378C1761.68 287.382 1761.68 287.385 1761.68 287.388C1761.69 287.389 1761.69 287.39 1761.69 287.39C1761.69 287.391 1761.69 287.391 1761.69 287.391C1761.69 287.391 1761.69 287.391 1762 287C1762.31 286.609 1762.31 286.609 1762.31 286.609C1762.31 286.609 1762.31 286.608 1762.31 286.608C1762.31 286.608 1762.31 286.607 1762.31 286.607C1762.31 286.605 1762.3 286.603 1762.3 286.599C1762.29 286.592 1762.28 286.581 1762.26 286.567C1762.22 286.538 1762.17 286.494 1762.1 286.435C1761.96 286.317 1761.75 286.138 1761.48 285.899C1760.93 285.422 1760.15 284.704 1759.18 283.746C1757.24 281.83 1754.57 278.957 1751.65 275.134C1745.8 267.488 1738.96 256.047 1734.98 240.873L1734.02 241.127ZM1761.64 286.649C1751.69 296.768 1737.92 315.552 1726.65 331.777C1721.01 339.896 1716 347.383 1712.39 352.841C1710.58 355.571 1709.13 357.792 1708.13 359.332C1707.63 360.102 1707.24 360.701 1706.98 361.108C1706.85 361.312 1706.75 361.467 1706.68 361.572C1706.65 361.624 1706.62 361.663 1706.6 361.69C1706.6 361.703 1706.59 361.713 1706.59 361.72C1706.58 361.723 1706.58 361.726 1706.58 361.728C1706.58 361.728 1706.58 361.729 1706.58 361.729C1706.58 361.73 1706.58 361.73 1707 362C1707.42 362.27 1707.42 362.27 1707.42 362.269C1707.42 362.269 1707.42 362.268 1707.42 362.268C1707.42 362.266 1707.43 362.263 1707.43 362.26C1707.43 362.253 1707.44 362.244 1707.45 362.23C1707.46 362.204 1707.49 362.165 1707.52 362.113C1707.59 362.008 1707.69 361.854 1707.82 361.65C1708.08 361.244 1708.47 360.646 1708.97 359.877C1709.97 358.339 1711.42 356.12 1713.22 353.393C1716.83 347.939 1721.84 340.458 1727.47 332.348C1738.75 316.114 1752.47 297.399 1762.36 287.351L1761.64 286.649ZM1707.26 361.572L1545.26 263.572L1544.74 264.428L1706.74 362.428L1707.26 361.572Z" fill="black"/>
</g>
<g id="suit--stripes" opacity="0.3">
<path id="Vector 19" d="M2321 509.997C2244 300.997 2081.7 228.297 1760.5 289.497" stroke="black" stroke-width="6" stroke-linecap="round" stroke-linejoin="round"/>
<path id="Vector 24" d="M2070.5 784C2175.58 814.276 2425.04 826.689 2612.47 558.765" stroke="black" stroke-width="6"/>
<path id="Vector 25" d="M1921.5 814.5C1940 814.502 2083.5 814.498 2292.47 626.766" stroke="black" stroke-width="6"/>
<path id="Vector 21" d="M2240.96 507.928C2135.94 464.165 1933.59 350.107 1706.5 604.998" stroke="black" stroke-width="6"/>
<path id="Vector 36" d="M1862.5 788C2089.59 533.109 2268 676 2366 657.002C2389.83 633.835 2439.5 587.8 2447.5 589" stroke="black" stroke-width="6"/>
<path id="Vector 38" d="M2364.5 658C2322 716 2330 770 2330 778C2330 827 2358.33 836.833 2385 844.5" stroke="black" stroke-width="5"/>
<path id="Vector 42" d="M2327.85 658C2209.37 716.155 2228 796.5 2228 796.5C2228 796.5 2266.66 856.813 2341 864.5" stroke="black" stroke-width="5"/>
<path id="Vector 39" d="M2449.5 607.5C2407 665.5 2413.5 715 2413.5 723C2413.5 772 2441.83 781.833 2468.5 789.5" stroke="black" stroke-width="5"/>
<path id="Vector 40" d="M2517.5 535.5C2475 593.5 2503.5 682 2503.5 682C2519.36 728.362 2531.83 740.833 2558.5 748.5" stroke="black" stroke-width="5"/>
<path id="Vector 41" d="M2573.5 622L2576.39 621.178L2576.38 621.16L2576.37 621.142L2573.5 622ZM2678.65 683.429C2680.27 683.069 2681.29 681.467 2680.93 679.849C2680.57 678.232 2678.97 677.212 2677.35 677.571L2678.65 683.429ZM2571.87 448.058C2554.39 479.925 2554.26 523.863 2558.27 559.337C2560.28 577.161 2563.37 593.023 2565.95 604.428C2567.24 610.132 2568.41 614.727 2569.25 617.902C2569.67 619.49 2570.01 620.722 2570.25 621.561C2570.37 621.981 2570.46 622.302 2570.53 622.519C2570.56 622.628 2570.58 622.712 2570.6 622.768C2570.61 622.797 2570.61 622.818 2570.62 622.833C2570.62 622.841 2570.62 622.847 2570.62 622.851C2570.62 622.853 2570.62 622.855 2570.62 622.856C2570.63 622.857 2570.63 622.858 2573.5 622C2576.37 621.142 2576.37 621.142 2576.37 621.141C2576.37 621.141 2576.37 621.14 2576.37 621.139C2576.37 621.136 2576.37 621.132 2576.37 621.126C2576.37 621.115 2576.36 621.096 2576.35 621.071C2576.34 621.021 2576.32 620.945 2576.29 620.843C2576.23 620.639 2576.14 620.332 2576.02 619.927C2575.8 619.117 2575.46 617.915 2575.05 616.36C2574.22 613.249 2573.07 608.727 2571.8 603.104C2569.26 591.852 2566.22 576.214 2564.23 558.663C2560.24 523.387 2560.61 481.075 2577.13 450.942L2571.87 448.058ZM2570.61 622.822C2581.57 661.286 2600.41 678.617 2621.11 685.052C2641.47 691.383 2662.97 686.912 2678.65 683.429L2677.35 677.571C2661.52 681.088 2641.53 685.117 2622.89 679.323C2604.59 673.633 2586.93 658.214 2576.39 621.178L2570.61 622.822Z" fill="black"/>
<path id="Vector 20" d="M2123 141.999C2357.86 214.171 2345.83 397.716 2337 493C2337 528.5 2353 568.3 2355 571.5C2357 574.7 2362.17 627.167 2364.5 653" stroke="black" stroke-width="6" stroke-linecap="round" stroke-linejoin="round"/>
<path id="Vector 31" d="M2298 532C2311.17 525.833 2337.5 492.5 2337.5 492.5C2343.5 508 2353.7 518.1 2382.5 514.5" stroke="black" stroke-width="6" stroke-linecap="round" stroke-linejoin="round"/>
<path id="Vector 32" d="M2317 608C2330.17 601.833 2354 570 2354 570C2360 585.5 2372.7 594.1 2401.5 590.5" stroke="black" stroke-width="6" stroke-linecap="round" stroke-linejoin="round"/>
<path id="Vector 33" d="M2226.5 456C2262.9 467.6 2275.33 435.5 2277 418C2306 405.5 2335.5 370.5 2335.5 370.5C2346.5 392.5 2376 393 2380.5 392.5C2385 392 2397.1 432.4 2409.5 418" stroke="black" stroke-width="6" stroke-linecap="round" stroke-linejoin="round"/>
<path id="Vector 34" d="M2409 319.5C2396.6 333.9 2362.5 243 2352 247C2341.5 251 2277 247 2266 225C2266 225 2256 313.5 2170.5 319.5C2184.5 369.5 2160 426 2043 445.5C2063.33 504 2058 649.5 2058 649.5C2129.5 654.5 2220 690.2 2166 725" stroke="black" stroke-width="6" stroke-linecap="round" stroke-linejoin="round"/>
<path id="Vector 35" d="M2331.5 214.5C2331.5 214.5 2220.5 155 2210 159C2199.5 163 2147.5 153.5 2123 142.5C2123 142.5 2090.5 265 2005 271C2019 321 2034.5 378.5 1920 457.5C1952 522.167 2007.1 659.4 1971.5 691C1963.5 696.5 2145.5 726 2087.5 770" stroke="black" stroke-width="6" stroke-linecap="round" stroke-linejoin="round"/>
<path id="Vector 37" d="M2124 143C2113.5 147 2036 171 2011.5 160C2011.5 160 1927.5 272.002 1842 278.002C1856 328.002 1894 455.502 1779.5 534.502C1811.5 599.168 1924.6 729.902 1889 761.502C1889 761.502 2068 784.502 2010 828.502" stroke="black" stroke-width="6" stroke-linecap="round" stroke-linejoin="round"/>
<path id="Vector 23" d="M2323.5 209.499C2435.5 317 2364 514.5 2364 514.5C2364.64 537.572 2368.5 587 2368.5 587C2368.5 587 2368.5 634.33 2365.5 655.997" stroke="black" stroke-width="6" stroke-linecap="round" stroke-linejoin="round"/>
</g>
<g id="Ellipse 12" filter="url(#filter0_d)">
<path d="M2154.5 832C2154.5 891.094 2085.09 957 2026 957C1966.91 957 1919 891.094 1919 832C1919 772.906 1966.91 725 2026 725C2085.09 725 2154.5 772.906 2154.5 832Z" fill="url(#paint4_radial)"/>
</g>
<path id="Vector 16" d="M2651.93 526.529C2647.93 537.729 2657.93 586.028 2660.93 593.029C2663.93 600.03 2676.43 562.529 2679.93 549.029C2683.43 535.529 2654.93 520.029 2651.93 526.529Z" fill="white" stroke="black" stroke-width="7"/>
<path id="Vector 17" d="M2612.11 540.776C2622.21 547.061 2644.41 591.108 2646.41 598.456C2648.41 605.804 2615.31 584.205 2604.17 575.808C2593.04 567.41 2605.72 537.551 2612.11 540.776Z" fill="white" stroke="black" stroke-width="9"/>
</g>
<path id="Vector 18" d="M2222 836C2193.2 850 2162 819.833 2150 803C2155 820.667 2170.7 856.1 2193.5 856.5C2216.3 856.9 2222 843 2222 836Z" fill="black" stroke="black"/>
<g id="Group 17">
<g id="eye--right">
<path id="Vector 14" d="M2415.13 409.978C2396.19 421.424 2374 563 2374 642C2400.17 592.238 2438.19 555.535 2438.19 548.694C2443.18 436.726 2423.86 402.514 2415.13 409.978Z" fill="black" stroke="black" stroke-width="2"/>
<path id="Vector 13" d="M2415.5 432.001C2400.3 441.201 2387.17 560.168 2382.5 618.501C2403.5 578.502 2434 549 2434 543.501C2438 453.501 2422.5 426.001 2415.5 432.001Z" fill="white" stroke="black"/>
</g>
<g id="eye--left">
<path id="Vector 12" d="M2184.61 430C2113.69 432.256 2112.15 502.612 2103 614.702C2124.81 610.472 2177.71 602.012 2214.86 602.012C2252 602.012 2315.7 638.671 2342.9 657C2347.59 657 2356.26 654.885 2353.45 646.425C2307.3 482.309 2221.66 433.76 2184.61 430Z" fill="black" stroke="black"/>
<path id="Vector 11" d="M2197.5 463C2147.1 464.6 2146 514.5 2139.5 594C2155 591 2192.6 585 2219 585C2245.4 585 2290.67 611 2310 624C2313.33 624 2319.5 622.5 2317.5 616.5C2284.7 500.1 2223.83 465.667 2197.5 463Z" fill="white" stroke="black"/>
</g>
</g>
</g>
</g>
<g id="Group 19">
<g id="exhaust">
<rect id="Rectangle 77" x="128.909" y="2070.5" width="309" height="137" transform="rotate(-8.99995 128.909 2070.5)" fill="#C4C4C4"/>
<ellipse id="Ellipse 13" cx="137.727" cy="2138.96" rx="43" ry="68" transform="rotate(-8.99995 137.727 2138.96)" fill="#1A0606"/>
<ellipse id="Ellipse 14" opacity="0.4" cx="137.726" cy="2138.96" rx="33.4037" ry="52.8244" transform="rotate(-8.99995 137.726 2138.96)" fill="#6D6868"/>
</g>
<path id="Vector 7" d="M4455.54 2203.29C4421.94 2204.49 4388.54 2218.79 4376.04 2225.79C4370.04 2330.99 4350.2 2367.96 4341.04 2373.29L382.535 2220.79C346.535 2211.59 349.535 2129.63 355.535 2089.79L204.035 2035.29L188.535 2046.79C163.368 2043.96 111.635 2036.29 106.035 2028.29C79.5352 1988.79 68.0354 1882.79 68.0354 1821.29C68.0354 1809.18 45.2939 1795.01 31.1177 1788C30.4329 1789.13 29.2931 1788.75 27.5354 1786.29C28.6457 1786.8 29.8473 1787.37 31.1177 1788C34.3287 1782.71 27.5354 1744.33 27.5354 1732.79C27.5354 1721.59 9.86872 1701.13 1.03539 1692.29C0.535391 1680.13 5.13539 1654.09 27.5354 1647.29C55.5354 1638.79 54.0354 1578.79 68.0354 1569.29C115.535 1538.79 519.035 1494.79 576.535 1496.29C622.535 1497.49 750.702 1462.13 809.035 1444.29C941.202 1387.46 1213.64 1272.09 1246.04 1265.29C1286.54 1256.79 1370.54 1134.79 1380.54 1134.79C1433.34 1127.99 1509.87 1166.63 1541.54 1186.79C1612.04 1176.96 1803.14 1156.99 2003.54 1155.79C2203.94 1154.59 2424.04 1201.96 2509.04 1225.79C2521.7 1226.79 2551.54 1228.19 2569.54 1225.79C2587.54 1223.39 2596.7 1242.79 2599.04 1252.79C2657.44 1251.99 2837.04 1357.79 2919.54 1410.79C3042.7 1411.79 3289.04 1417.39 3289.04 1431.79C3302.24 1486.59 3344.2 1525.63 3363.54 1538.29C3383.04 1537.79 3469.14 1540.69 3657.54 1556.29C3893.04 1575.79 4201.04 1636.29 4422.04 1688.29C4598.83 1729.89 4684.37 1779.29 4705.04 1798.79C4699.37 1808.63 4680.54 1832.99 4650.54 1851.79C4620.54 1870.59 4620.37 1910.29 4624.04 1927.79C4631.04 1945.46 4650.04 1988.09 4670.04 2017.29C4695.04 2053.79 4600.04 2071.79 4594.54 2094.29C4590.14 2112.29 4561.7 2174.46 4548.04 2203.29C4531.2 2202.79 4489.14 2202.09 4455.54 2203.29Z" fill="#4F56DF" stroke="black"/>
<mask id="mask0" mask-type="alpha" maskUnits="userSpaceOnUse" x="0" y="1133" width="4706" height="1241">
<path id="Vector 25_2" d="M4455.54 2203.29C4421.94 2204.49 4388.54 2218.79 4376.04 2225.79C4370.04 2330.99 4350.2 2367.96 4341.04 2373.29L382.535 2220.79C346.535 2211.59 349.535 2129.63 355.535 2089.79L204.035 2035.29L188.535 2046.79C163.368 2043.96 111.635 2036.29 106.035 2028.29C79.5352 1988.79 68.0354 1882.79 68.0354 1821.29C68.0354 1809.18 45.2939 1795.01 31.1177 1788C30.4329 1789.13 29.2931 1788.75 27.5354 1786.29C28.6457 1786.8 29.8473 1787.37 31.1177 1788C34.3287 1782.71 27.5354 1744.33 27.5354 1732.79C27.5354 1721.59 9.86872 1701.13 1.03539 1692.29C0.535391 1680.13 5.13539 1654.09 27.5354 1647.29C55.5354 1638.79 54.0354 1578.79 68.0354 1569.29C115.535 1538.79 519.035 1494.79 576.535 1496.29C622.535 1497.49 750.702 1462.13 809.035 1444.29C941.202 1387.46 1213.64 1272.09 1246.04 1265.29C1286.54 1256.79 1370.54 1134.79 1380.54 1134.79C1433.34 1127.99 1509.87 1166.63 1541.54 1186.79C1612.04 1176.96 1803.14 1156.99 2003.54 1155.79C2203.94 1154.59 2424.04 1201.96 2509.04 1225.79C2521.7 1226.79 2551.54 1228.19 2569.54 1225.79C2587.54 1223.39 2596.7 1242.79 2599.04 1252.79C2657.44 1251.99 2837.04 1357.79 2919.54 1410.79C3042.7 1411.79 3289.04 1417.39 3289.04 1431.79C3302.24 1486.59 3344.2 1525.63 3363.54 1538.29C3383.04 1537.79 3469.14 1540.69 3657.54 1556.29C3893.04 1575.79 4201.04 1636.29 4422.04 1688.29C4598.83 1729.89 4684.37 1779.29 4705.04 1798.79C4699.37 1808.63 4680.54 1832.99 4650.54 1851.79C4620.54 1870.59 4620.37 1910.29 4624.04 1927.79C4631.04 1945.46 4650.04 1988.09 4670.04 2017.29C4695.04 2053.79 4600.04 2071.79 4594.54 2094.29C4590.14 2112.29 4561.7 2174.46 4548.04 2203.29C4531.2 2202.79 4489.14 2202.09 4455.54 2203.29Z" fill="#4F56DF" stroke="black"/>
</mask>
<g mask="url(#mask0)">
<path id="Vector 24_2" d="M996.929 1451.09C872.433 1448.49 324.604 1501.84 66.2511 1528.84L-99 1979.96L182 2226L3109 2353L4425 2401L4746 2061.43C4746 2061.43 4831.5 1856.31 4722.68 1804.91C4613.86 1753.51 4261 1666 4100.71 1645.69C3940.42 1625.38 3287.63 1580.67 3008.33 1574.93C2612.6 1559.56 1798.04 1528.84 1705.58 1528.84C1590.01 1528.84 1152.55 1454.35 996.929 1451.09Z" fill="#262B8A" stroke="black"/>
<path id="Vector 29" d="M1682.5 1658.5C1643.5 1904.5 1640 1950.5 1682.5 2176C1682.5 2176 2946.61 2222.5 2955 2206C3006.5 2082 3091.5 1943 3006.5 1699" stroke="black" stroke-width="14" stroke-linecap="round" stroke-linejoin="bevel"/>
</g>
</g>
<g id="tires">
<g id="tire--back">
<circle id="Ellipse 9" cx="902" cy="2159" r="401.5" fill="url(#paint5_radial)" stroke="black" stroke-width="7"/>
<circle id="Ellipse 10" cx="902" cy="2159" r="324.5" fill="#C4C4C4" stroke="black" stroke-width="7"/>
<circle id="Ellipse 11" r="56" transform="matrix(1 0 0 -1 902 2159)" fill="#C4C4C4" stroke="black" stroke-width="24"/>
</g>
<g id="tire--front">
<circle id="Ellipse 9_2" cx="4021" cy="2212" r="348.5" fill="url(#paint6_radial)" stroke="black" stroke-width="7"/>
<circle id="Ellipse 10_2" cx="4021" cy="2212" r="295.5" fill="#C4C4C4" stroke="black" stroke-width="7"/>
<circle id="Ellipse 11_2" r="47.1012" transform="matrix(1 0 0 -1 4021.1 2211.9)" fill="#C4C4C4" stroke="black" stroke-width="24"/>
</g>
</g>
<path id="Vector 6" d="M1850 1507.38C1753.6 1502.98 1576.5 1446.21 1500 1418.38C1508.67 1402.55 1542.9 1357.58 1610.5 1304.38C1706.5 1244.38 1792.83 1226.05 1824 1224.38C2356.5 1216.38 2499.5 1244.71 2537 1269.88C2574.5 1295.05 2831 1450.38 2840.5 1484.88C2850 1519.38 2775.6 1523.48 2754 1523.88C2732.4 1524.28 2142.33 1513.05 1850 1507.38Z" fill="url(#paint7_radial)" stroke="black"/>
</g>
<defs>
<filter id="filter0_d" x="1915" y="725" width="243.5" height="240" filterUnits="userSpaceOnUse" color-interpolation-filters="sRGB">
<feFlood flood-opacity="0" result="BackgroundImageFix"/>
<feColorMatrix in="SourceAlpha" type="matrix" values="0 0 0 0 0 0 0 0 0 0 0 0 0 0 0 0 0 0 127 0"/>
<feOffset dy="4"/>
<feGaussianBlur stdDeviation="2"/>
<feColorMatrix type="matrix" values="0 0 0 0 0 0 0 0 0 0 0 0 0 0 0 0 0 0 0.25 0"/>
<feBlend mode="normal" in2="BackgroundImageFix" result="effect1_dropShadow"/>
<feBlend mode="normal" in="SourceGraphic" in2="effect1_dropShadow" result="shape"/>
</filter>
<radialGradient id="paint0_radial" cx="0" cy="0" r="1" gradientUnits="userSpaceOnUse" gradientTransform="translate(2126.98 711.25) rotate(90) scale(711.25 582.983)">
<stop stop-color="#70140E"/>
<stop offset="1" stop-color="#A92220"/>
</radialGradient>
<radialGradient id="paint1_radial" cx="0" cy="0" r="1" gradientUnits="userSpaceOnUse" gradientTransform="translate(2126.98 711.25) rotate(90) scale(711.25 582.983)">
<stop stop-color="#70140E"/>
<stop offset="1" stop-color="#A92220"/>
</radialGradient>
<radialGradient id="paint2_radial" cx="0" cy="0" r="1" gradientUnits="userSpaceOnUse" gradientTransform="translate(2126.98 711.25) rotate(90) scale(711.25 582.983)">
<stop stop-color="#70140E"/>
<stop offset="1" stop-color="#A92220"/>
</radialGradient>
<radialGradient id="paint3_radial" cx="0" cy="0" r="1" gradientUnits="userSpaceOnUse" gradientTransform="translate(2126.98 711.25) rotate(90) scale(711.25 582.983)">
<stop stop-color="#70140E"/>
<stop offset="1" stop-color="#A92220"/>
</radialGradient>
<radialGradient id="paint4_radial" cx="0" cy="0" r="1" gradientUnits="userSpaceOnUse" gradientTransform="translate(2036.75 841) rotate(108.899) scale(165.946 168.449)">
<stop stop-color="#70140E"/>
<stop offset="1" stop-color="#A92220"/>
</radialGradient>
<radialGradient id="paint5_radial" cx="0" cy="0" r="1" gradientUnits="userSpaceOnUse" gradientTransform="translate(902 2159) rotate(90) scale(405)">
<stop/>
<stop offset="1" stop-color="#101010"/>
</radialGradient>
<radialGradient id="paint6_radial" cx="0" cy="0" r="1" gradientUnits="userSpaceOnUse" gradientTransform="translate(4021 2212) rotate(90) scale(352)">
<stop/>
<stop offset="1" stop-color="#101010"/>
</radialGradient>
<radialGradient id="paint7_radial" cx="0" cy="0" r="1" gradientUnits="userSpaceOnUse" gradientTransform="translate(2146.31 1373.44) rotate(90) scale(150.445 646.306)">
<stop stop-color="#3F3E3E"/>
<stop offset="1" stop-color="#141212"/>
</radialGradient>
</defs>
</svg>
