<svg width="199" height="199" viewBox="0 0 199 199" fill="none" xmlns="http://www.w3.org/2000/svg">
<g id="propellar">
<g id="Ellipse 2">
<circle cx="99.0083" cy="99.0083" r="30" transform="rotate(-89.9842 99.0083 99.0083)" fill="#13BADE"/>
<circle cx="99.0083" cy="99.0083" r="29" transform="rotate(-89.9842 99.0083 99.0083)" stroke="black" stroke-opacity="0.13" stroke-width="2"/>
</g>
<g id="propellar--blade-b">
<path id="Subtract" fill-rule="evenodd" clip-rule="evenodd" d="M93.3381 96.9559L176.859 13.4351L186.408 22.9838C183.96 40.9587 175.827 58.3078 162.01 72.1249C143.216 90.9188 117.888 99.1958 93.3381 96.9559Z" fill="url(#paint0_linear)"/>
<path id="Subtract_2" fill-rule="evenodd" clip-rule="evenodd" d="M105.441 101.823L21.9203 185.344L12.3715 175.795C14.8197 157.821 22.9524 140.472 36.7696 126.654C55.5635 107.86 80.8917 99.5835 105.441 101.823Z" fill="url(#paint1_linear)"/>
</g>
<g id="propellar--blade-a">
<path id="Subtract_3" fill-rule="evenodd" clip-rule="evenodd" d="M101.823 93.3382L185.344 176.859L175.796 186.408C157.821 183.96 140.472 175.827 126.654 162.01C107.861 143.216 99.5835 117.888 101.823 93.3382Z" fill="url(#paint2_linear)"/>
<path id="Subtract_4" fill-rule="evenodd" clip-rule="evenodd" d="M96.9559 105.441L13.435 21.9204L22.9838 12.3716C40.9587 14.8198 58.3077 22.9525 72.1249 36.7697C90.9188 55.5636 99.1958 80.8918 96.9559 105.441Z" fill="url(#paint3_linear)"/>
</g>
<circle id="Ellipse 3" cx="99.0041" cy="99.0041" r="15" transform="rotate(-89.9842 99.0041 99.0041)" fill="url(#paint4_linear)"/>
</g>
<defs>
<linearGradient id="paint0_linear" x1="187.819" y1="24.3952" x2="104.298" y2="107.916" gradientUnits="userSpaceOnUse">
<stop stop-color="#13BADE"/>
<stop offset="1" stop-color="#19A4C2"/>
</linearGradient>
<linearGradient id="paint1_linear" x1="10.9602" y1="174.384" x2="94.4811" y2="90.8631" gradientUnits="userSpaceOnUse">
<stop stop-color="#13BADE"/>
<stop offset="1" stop-color="#19A4C2"/>
</linearGradient>
<linearGradient id="paint2_linear" x1="174.384" y1="187.819" x2="90.8632" y2="104.298" gradientUnits="userSpaceOnUse">
<stop stop-color="#1F7689"/>
<stop offset="1" stop-color="#1FA4C1"/>
</linearGradient>
<linearGradient id="paint3_linear" x1="24.3952" y1="10.9603" x2="107.916" y2="94.4812" gradientUnits="userSpaceOnUse">
<stop stop-color="#1F7689"/>
<stop offset="1" stop-color="#1FA4C1"/>
</linearGradient>
<linearGradient id="paint4_linear" x1="71.2046" y1="76.1812" x2="82.19" y2="81.8633" gradientUnits="userSpaceOnUse">
<stop stop-color="#13869E"/>
</linearGradient>
</defs>
</svg>
