<svg width="401" height="824" viewBox="0 0 401 824" fill="none" xmlns="http://www.w3.org/2000/svg">
<g id="Group 3">
<path id="Rectangle 3" d="M0 43.1055H401L367.232 72.6528H29.5474L0 43.1055Z" fill="#4E1B1B"/>
<path id="Union" fill-rule="evenodd" clip-rule="evenodd" d="M67.5369 218.387C91.5276 218.387 111.463 201.023 115.46 178.177H113.969V165.514H116.009C113.87 140.62 92.985 121.082 67.5369 121.082C40.6668 121.082 18.8843 142.865 18.8843 169.735C18.8843 196.605 40.6668 218.387 67.5369 218.387ZM67.5369 220.387C92.6352 220.387 113.47 202.133 117.489 178.177H287.732C291.751 202.133 312.586 220.388 337.684 220.388C365.659 220.388 388.337 197.71 388.337 169.735C388.337 141.761 365.659 119.083 337.684 119.083C311.131 119.083 289.35 139.514 287.205 165.514H118.016C115.871 139.514 94.0902 119.082 67.5369 119.082C39.5622 119.082 16.8843 141.76 16.8843 169.735C16.8843 197.709 39.5622 220.387 67.5369 220.387ZM289.761 178.177H291.253V165.514H289.212C291.352 140.62 312.236 121.083 337.684 121.083C364.554 121.083 386.337 142.865 386.337 169.735C386.337 196.605 364.554 218.388 337.684 218.388C313.693 218.388 293.758 201.023 289.761 178.177Z" fill="black"/>
<path id="Union_2" fill-rule="evenodd" clip-rule="evenodd" d="M67.5369 345.02C91.5279 345.02 111.463 327.655 115.46 304.809H113.969V292.146H116.009C113.869 267.252 92.9847 247.715 67.5369 247.715C40.6668 247.715 18.8843 269.497 18.8843 296.367C18.8843 323.238 40.6668 345.02 67.5369 345.02ZM67.5369 347.02C92.6355 347.02 113.47 328.766 117.489 304.809H287.732C291.751 328.766 312.585 347.02 337.684 347.02C365.659 347.02 388.337 324.342 388.337 296.367C388.337 268.393 365.659 245.715 337.684 245.715C311.131 245.715 289.35 266.146 287.205 292.146H118.016C115.871 266.146 94.0899 245.715 67.5369 245.715C39.5622 245.715 16.8843 268.393 16.8843 296.367C16.8843 324.342 39.5622 347.02 67.5369 347.02ZM289.761 304.809H291.253V292.146H289.212C291.352 267.252 312.236 247.715 337.684 247.715C364.554 247.715 386.337 269.497 386.337 296.367C386.337 323.238 364.554 345.02 337.684 345.02C313.693 345.02 293.758 327.655 289.761 304.809Z" fill="black"/>
<path id="Union_3" fill-rule="evenodd" clip-rule="evenodd" d="M67.5369 471.653C91.5279 471.653 111.463 454.288 115.46 431.442H113.969V418.779H116.009C113.869 393.885 92.9847 374.348 67.5369 374.348C40.6668 374.348 18.8843 396.13 18.8843 423C18.8843 449.87 40.6668 471.653 67.5369 471.653ZM67.5369 473.653C92.6354 473.653 113.47 455.398 117.489 431.442H287.732C291.751 455.398 312.586 473.653 337.684 473.653C365.659 473.653 388.337 450.975 388.337 423C388.337 395.026 365.659 372.348 337.684 372.348C311.131 372.348 289.35 392.779 287.205 418.779H118.016C115.871 392.779 94.09 372.348 67.5369 372.348C39.5622 372.348 16.8843 395.026 16.8843 423C16.8843 450.975 39.5622 473.653 67.5369 473.653ZM289.761 431.442H291.253V418.779H289.212C291.352 393.885 312.236 374.348 337.684 374.348C364.554 374.348 386.337 396.13 386.337 423C386.337 449.87 364.554 471.653 337.684 471.653C313.693 471.653 293.758 454.288 289.761 431.442Z" fill="black"/>
<path id="Union_4" fill-rule="evenodd" clip-rule="evenodd" d="M67.5367 598.278C91.5276 598.278 111.463 580.913 115.46 558.067H113.968V545.404H116.009C113.869 520.51 92.9846 500.973 67.5367 500.973C40.6666 500.973 18.884 522.755 18.884 549.625C18.884 576.495 40.6666 598.278 67.5367 598.278ZM67.5367 600.278C92.6351 600.278 113.47 582.023 117.489 558.067H287.732C291.751 582.024 312.586 600.278 337.684 600.278C365.659 600.278 388.337 577.6 388.337 549.626C388.337 521.651 365.659 498.973 337.684 498.973C311.131 498.973 289.35 519.404 287.205 545.404H118.016C115.871 519.404 94.0898 498.973 67.5367 498.973C39.562 498.973 16.884 521.651 16.884 549.625C16.884 577.6 39.562 600.278 67.5367 600.278ZM289.761 558.067H291.252V545.404H289.212C291.352 520.51 312.236 500.973 337.684 500.973C364.554 500.973 386.337 522.755 386.337 549.626C386.337 576.496 364.554 598.278 337.684 598.278C313.693 598.278 293.758 580.913 289.761 558.067Z" fill="black"/>
<path id="Union_5" fill-rule="evenodd" clip-rule="evenodd" d="M67.5369 724.911C91.5279 724.911 111.463 707.546 115.46 684.7H113.969V672.036H116.009C113.869 647.143 92.9847 627.605 67.5369 627.605C40.6668 627.605 18.8843 649.388 18.8843 676.258C18.8843 703.128 40.6668 724.911 67.5369 724.911ZM67.5369 726.911C92.6355 726.911 113.47 708.656 117.489 684.7H287.732C291.751 708.656 312.585 726.911 337.684 726.911C365.659 726.911 388.337 704.233 388.337 676.258C388.337 648.283 365.659 625.605 337.684 625.605C311.131 625.605 289.35 646.037 287.205 672.036H118.016C115.871 646.037 94.0899 625.605 67.5369 625.605C39.5622 625.605 16.8843 648.283 16.8843 676.258C16.8843 704.233 39.5622 726.911 67.5369 726.911ZM289.761 684.7H291.253V672.036H289.212C291.352 647.143 312.236 627.605 337.684 627.605C364.554 627.605 386.337 649.388 386.337 676.258C386.337 703.128 364.554 724.911 337.684 724.911C313.693 724.911 293.758 707.546 289.761 684.7Z" fill="black"/>
<path id="Union_6" fill-rule="evenodd" clip-rule="evenodd" d="M401 0.894531H0V43.1051H158.289V824H242.71V43.1051H401V0.894531Z" fill="#C4C4C4"/>
<g id="Group 1">
<path id="Letter-G" d="M221.77 125.61C220.407 132.359 217.538 137.756 213.163 141.801C208.81 145.825 203.666 147.836 197.73 147.836C192.322 147.836 188.265 146.33 185.561 143.318C182.857 140.284 181.505 135.745 181.505 129.699C181.505 124.005 182.846 118.146 185.528 112.122C188.232 106.076 191.695 101.196 195.916 97.4803C198.73 94.996 201.709 93.7539 204.853 93.7539C206.853 93.7539 209.492 94.4134 212.767 95.7325C216.769 97.3154 218.769 99.0632 218.769 100.976C218.769 101.877 218.439 102.68 217.78 103.383C217.12 104.087 216.329 104.438 215.405 104.438C214.922 104.438 214.24 104.164 213.361 103.614C209.997 101.569 207.161 100.547 204.853 100.547C203.204 100.547 201.478 101.405 199.675 103.119C198.774 103.977 197.477 105.538 195.784 107.802C190.706 114.529 188.166 121.828 188.166 129.699C188.166 133.832 188.804 136.723 190.079 138.372C191.464 140.174 194.014 141.076 197.73 141.076C201.665 141.076 205.084 139.834 207.986 137.349C211.042 134.711 213.174 130.941 214.383 126.038C208.293 126.346 203.072 127.522 198.719 129.567C198.213 129.809 197.719 129.93 197.235 129.93C196.268 129.93 195.465 129.556 194.828 128.808C194.234 128.127 193.937 127.335 193.937 126.434C193.937 125.225 194.52 124.258 195.685 123.532C200.434 120.63 208.623 119.179 220.253 119.179C221.198 119.179 221.99 119.498 222.627 120.135C223.265 120.773 223.584 121.575 223.584 122.543C223.584 123.972 222.979 124.994 221.77 125.61Z" fill="black"/>
<path id="Letter-O" d="M199.906 221.702C193.707 221.702 188.452 219.844 184.143 216.129C179.571 212.172 177.284 207.071 177.284 200.828C177.284 193.221 179.538 186.307 184.044 180.085C189.079 173.182 195.356 169.73 202.874 169.73C210.107 169.73 215.483 171.357 219 174.611C222.671 177.997 224.507 183.339 224.507 190.638C224.507 198.245 222.441 205.104 218.308 211.216C213.559 218.207 207.425 221.702 199.906 221.702ZM202.874 176.491C197.488 176.491 192.926 179.173 189.189 184.537C185.737 189.462 184.011 194.892 184.011 200.828C184.011 205.071 185.583 208.522 188.727 211.183C191.739 213.689 195.465 214.942 199.906 214.942C205.249 214.942 209.657 212.249 213.13 206.863C216.23 202.048 217.78 196.64 217.78 190.638C217.78 185.384 216.604 181.69 214.251 179.558C212.009 177.513 208.217 176.491 202.874 176.491Z" fill="black"/>
<path id="Letter-F" d="M216.494 313.35C216.098 313.35 215.68 313.262 215.24 313.086C212.514 312.075 208.909 311.569 204.424 311.569C202.973 311.569 201.269 311.679 199.313 311.899C197.378 312.097 195.201 312.415 192.783 312.855L192.717 327.101C196.96 325.98 200.148 325.419 202.281 325.419C205.666 325.419 209.173 325.617 212.8 326.013C214.867 326.233 215.9 327.354 215.9 329.376C215.9 330.366 215.581 331.19 214.944 331.85C214.306 332.487 213.515 332.806 212.569 332.806C211.426 332.806 209.711 332.707 207.425 332.509C205.139 332.311 203.424 332.212 202.281 332.212C200.786 332.212 197.554 332.85 192.585 334.125L192.288 356.813C192.288 357.759 191.981 358.55 191.365 359.188C190.75 359.847 189.969 360.177 189.024 360.177C188.078 360.177 187.287 359.847 186.649 359.188C186.034 358.55 185.726 357.759 185.726 356.813C185.726 352.482 185.803 345.986 185.957 337.324C186.133 328.64 186.221 322.132 186.221 317.802C186.221 316.834 186.199 315.383 186.155 313.449C186.133 311.492 186.122 310.03 186.122 309.063C186.122 308.095 186.419 307.282 187.012 306.622C187.628 305.963 188.419 305.633 189.387 305.633C190.112 305.633 190.761 305.831 191.332 306.227C194.058 305.743 196.51 305.391 198.686 305.171C200.863 304.93 202.775 304.809 204.424 304.809C206.952 304.809 209.843 305.171 213.097 305.897C217.516 306.908 219.725 308.227 219.725 309.854C219.725 310.733 219.44 311.514 218.868 312.195C218.23 312.965 217.439 313.35 216.494 313.35Z" fill="black"/>
<path id="Letter-A" d="M218.406 430.514C216.384 430.514 214.625 427.92 213.13 422.732C212.558 420.753 211.844 417.291 210.987 412.344C208.744 412.652 205.809 413.202 202.182 413.993L193.41 415.807C192.311 418.687 190.431 422.897 187.771 428.437C187.067 429.668 186.111 430.284 184.902 430.284C184.022 430.284 183.231 429.965 182.527 429.327C181.846 428.69 181.505 427.898 181.505 426.953C181.505 425.898 183.165 421.885 186.485 414.916C186.111 414.345 185.924 413.685 185.924 412.938C185.924 411.157 187.001 410.014 189.156 409.508C191.662 404.803 194.828 399.395 198.653 393.283C203.864 384.951 207.106 380.785 208.381 380.785C210.118 380.785 211.305 381.994 211.943 384.413L214.02 395.493L218.934 418.412L220.814 423.622C221.451 425.403 221.77 426.59 221.77 427.184C221.77 428.129 221.429 428.921 220.748 429.558C220.066 430.196 219.286 430.514 218.406 430.514ZM206.765 392.822L197.334 408.024C199.994 407.343 204.028 406.518 209.437 405.551L206.765 392.822Z" fill="black"/>
<path id="Letter-S" d="M181.506 492.709C181.484 491.786 181.792 491.038 182.43 490.466C183.089 489.873 183.892 489.576 184.837 489.576C185.914 489.576 186.859 490.192 187.673 491.423C188.794 493.094 189.794 494.226 190.674 494.819C192.543 496.051 195.258 496.666 198.819 496.666C202.227 496.666 205.393 495.93 208.317 494.457C212.054 492.566 213.923 489.939 213.923 486.575C213.923 483.805 212.351 481.618 209.207 480.013C206.547 478.628 203.26 477.88 199.347 477.77C195.873 477.638 192.916 476.88 190.476 475.495C187.354 473.714 185.793 471.164 185.793 467.844C185.793 463.931 188.014 460.359 192.455 457.127C196.698 454.071 201.084 452.543 205.612 452.543C207.745 452.543 210.152 452.906 212.834 453.631C216.396 454.577 218.177 455.786 218.177 457.259C218.177 459.193 217.187 460.161 215.209 460.161C214.329 460.161 212.79 459.93 210.592 459.468C208.393 458.984 206.69 458.754 205.48 458.776C202.051 458.82 199.138 459.666 196.742 461.315C194.279 463.008 193.048 465.063 193.048 467.482C193.048 469.306 194.675 470.592 197.929 471.34C199.138 471.626 201.479 471.889 204.953 472.131C209.987 472.505 213.923 474.088 216.759 476.88C219.353 479.43 220.65 482.541 220.65 486.212C220.65 491.445 218.232 495.622 213.395 498.744C209.196 501.448 204.326 502.8 198.786 502.8C194.763 502.8 191.081 502.03 187.739 500.491C183.65 498.601 181.572 496.007 181.506 492.709Z" fill="black"/>
<path id="Letter-T" d="M218.373 532.619C216.747 532.619 214.24 532.487 210.855 532.223C207.557 531.981 205.051 531.871 203.336 531.893H200.995C201.061 534.927 201.357 539.852 201.885 546.667C202.369 553.021 202.61 557.956 202.61 561.474C202.61 562.243 202.687 563.408 202.841 564.969C202.995 566.53 203.072 567.706 203.072 568.498C203.072 569.993 202.83 571.279 202.347 572.356C201.731 573.807 200.775 574.533 199.478 574.533C198.598 574.533 197.807 574.225 197.103 573.609C196.4 572.994 196.048 572.202 196.048 571.235C196.048 570.905 196.103 570.41 196.213 569.751C196.323 569.091 196.378 568.597 196.378 568.267C196.378 567.19 196.301 565.574 196.147 563.419C196.015 561.265 195.949 559.638 195.949 558.539C195.949 555.395 195.696 550.976 195.191 545.282C194.663 539.126 194.366 534.707 194.3 532.025L191.299 532.058C186.485 532.058 182.703 531.706 179.955 531.003C178.175 530.541 177.284 529.453 177.284 527.738C177.284 526.837 177.57 526.045 178.142 525.364C178.801 524.594 179.648 524.243 180.681 524.309C181.45 524.353 183.209 524.55 185.957 524.902C188.156 525.166 189.936 525.298 191.299 525.298C192.618 525.298 194.619 525.276 197.301 525.232C199.983 525.166 201.984 525.133 203.303 525.133C204.996 525.133 207.502 525.254 210.822 525.496C214.163 525.738 216.681 525.859 218.373 525.859C219.319 525.859 220.11 526.188 220.748 526.848C221.385 527.485 221.704 528.288 221.704 529.255C221.704 530.2 221.385 531.003 220.748 531.662C220.11 532.3 219.319 532.619 218.373 532.619Z" fill="black"/>
</g>
<g id="color--orange-1" opacity="0.45">
<circle id="1-color-orange" cx="67.5368" cy="169.736" r="37.9895" fill="url(#paint0_radial)"/>
<circle id="1-color-orange_2" cx="337.684" cy="169.736" r="37.9895" fill="url(#paint1_radial)"/>
</g>
<g id="color--orange-2" opacity="0.45">
<circle id="1-color-orange_3" cx="67.5368" cy="296.364" r="37.9895" fill="url(#paint2_radial)"/>
<circle id="1-color-orange_4" cx="337.684" cy="296.364" r="37.9895" fill="url(#paint3_radial)"/>
</g>
<g id="color--orange-3" opacity="0.45">
<circle id="1-color-orange_5" cx="67.5368" cy="422.997" r="37.9895" fill="url(#paint4_radial)"/>
<circle id="1-color-orange_6" cx="337.684" cy="422.997" r="37.9895" fill="url(#paint5_radial)"/>
</g>
<g id="color--green" opacity="0.8">
<circle id="1-color-orange_7" cx="67.5368" cy="549.63" r="37.9895" fill="url(#paint6_radial)"/>
<circle id="1-color-orange_8" cx="337.684" cy="549.63" r="37.9895" fill="url(#paint7_radial)"/>
</g>
<g id="color--green--go" opacity="0.8">
<circle id="1-color-orange_9" cx="67.5368" cy="549.63" r="39.4895" fill="url(#paint8_radial)" stroke="#75EE0D" stroke-width="3"/>
<circle id="1-color-orange_10" cx="337.684" cy="549.63" r="39.4895" fill="url(#paint9_radial)" stroke="#75EE0D" stroke-width="3"/>
</g>
<g id="color--red" opacity="0.5">
<circle id="1-color-orange_11" cx="67.5368" cy="676.263" r="37.9895" fill="url(#paint10_radial)"/>
<circle id="1-color-orange_12" cx="337.684" cy="676.263" r="37.9895" fill="url(#paint11_radial)"/>
</g>
</g>
<defs>
<radialGradient id="paint0_radial" cx="0" cy="0" r="1" gradientUnits="userSpaceOnUse" gradientTransform="translate(67.5368 169.736) rotate(90) scale(37.9895)">
<stop stop-color="#FF732C"/>
<stop offset="1" stop-color="#6F2B08"/>
</radialGradient>
<radialGradient id="paint1_radial" cx="0" cy="0" r="1" gradientUnits="userSpaceOnUse" gradientTransform="translate(337.684 169.736) rotate(90) scale(37.9895)">
<stop stop-color="#FF732C"/>
<stop offset="1" stop-color="#6F2B08"/>
</radialGradient>
<radialGradient id="paint2_radial" cx="0" cy="0" r="1" gradientUnits="userSpaceOnUse" gradientTransform="translate(67.5368 296.364) rotate(90) scale(37.9895)">
<stop stop-color="#FF732C"/>
<stop offset="1" stop-color="#6F2B08"/>
</radialGradient>
<radialGradient id="paint3_radial" cx="0" cy="0" r="1" gradientUnits="userSpaceOnUse" gradientTransform="translate(337.684 296.364) rotate(90) scale(37.9895)">
<stop stop-color="#FF732C"/>
<stop offset="1" stop-color="#6F2B08"/>
</radialGradient>
<radialGradient id="paint4_radial" cx="0" cy="0" r="1" gradientUnits="userSpaceOnUse" gradientTransform="translate(67.5368 422.997) rotate(90) scale(37.9895)">
<stop stop-color="#FF732C"/>
<stop offset="1" stop-color="#6F2B08"/>
</radialGradient>
<radialGradient id="paint5_radial" cx="0" cy="0" r="1" gradientUnits="userSpaceOnUse" gradientTransform="translate(337.684 422.997) rotate(90) scale(37.9895)">
<stop stop-color="#FF732C"/>
<stop offset="1" stop-color="#6F2B08"/>
</radialGradient>
<radialGradient id="paint6_radial" cx="0" cy="0" r="1" gradientUnits="userSpaceOnUse" gradientTransform="translate(67.5368 549.63) rotate(90) scale(37.9895)">
<stop stop-color="#43800E"/>
<stop offset="1" stop-color="#132603" stop-opacity="0.74"/>
</radialGradient>
<radialGradient id="paint7_radial" cx="0" cy="0" r="1" gradientUnits="userSpaceOnUse" gradientTransform="translate(337.684 549.63) rotate(90) scale(37.9895)">
<stop stop-color="#43800E"/>
<stop offset="1" stop-color="#132603" stop-opacity="0.74"/>
</radialGradient>
<radialGradient id="paint8_radial" cx="0" cy="0" r="1" gradientUnits="userSpaceOnUse" gradientTransform="translate(67.5368 549.63) rotate(90) scale(37.9895)">
<stop stop-color="#75EE0D"/>
<stop offset="1" stop-color="#55B005" stop-opacity="0.74"/>
</radialGradient>
<radialGradient id="paint9_radial" cx="0" cy="0" r="1" gradientUnits="userSpaceOnUse" gradientTransform="translate(337.684 549.63) rotate(90) scale(37.9895)">
<stop stop-color="#75EE0D"/>
<stop offset="1" stop-color="#55B005" stop-opacity="0.74"/>
</radialGradient>
<radialGradient id="paint10_radial" cx="0" cy="0" r="1" gradientUnits="userSpaceOnUse" gradientTransform="translate(67.5368 676.263) rotate(90) scale(37.9895)">
<stop stop-color="#EC0404"/>
<stop offset="1" stop-color="#1C0000"/>
</radialGradient>
<radialGradient id="paint11_radial" cx="0" cy="0" r="1" gradientUnits="userSpaceOnUse" gradientTransform="translate(337.684 676.263) rotate(90) scale(37.9895)">
<stop stop-color="#EC0404"/>
<stop offset="1" stop-color="#1C0000"/>
</radialGradient>
</defs>
</svg>
