<svg width="3302" height="1210" viewBox="0 0 3302 1210" fill="none" xmlns="http://www.w3.org/2000/svg">
<mask id="path-1-inside-1" fill="white">
<path d="M1651 2.75104L1150.15 0L0 1210H3302L2151.85 0L1651 2.75104Z"/>
</mask>
<path d="M1651 2.75104L1150.15 0L0 1210H3302L2151.85 0L1651 2.75104Z" fill="url(#paint0_linear)"/>
<path d="M1150.15 0L1150.16 -0.999985L1149.72 -1.00236L1149.43 -0.688955L1150.15 0ZM1651 2.75104L1650.99 3.75109L1651.01 3.75103L1651 2.75104ZM0 1210L-0.724804 1209.31L-2.33022 1211H0V1210ZM3302 1210V1211H3304.33L3302.72 1209.31L3302 1210ZM2151.85 0L2152.57 -0.688955L2152.28 -1.00236L2151.84 -0.999985L2151.85 0ZM1150.15 0.999985L1650.99 3.75103L1651.01 1.75106L1150.16 -0.999985L1150.15 0.999985ZM0.724804 1210.69L1150.88 0.688955L1149.43 -0.688955L-0.724804 1209.31L0.724804 1210.69ZM3302.72 1209.31L2152.57 -0.688955L2151.12 0.688955L3301.28 1210.69L3302.72 1209.31ZM2151.84 -0.999985L1650.99 1.75106L1651.01 3.75103L2151.85 0.999985L2151.84 -0.999985ZM3302 1209H0V1211H3302V1209Z" fill="black" mask="url(#path-1-inside-1)"/>
<rect x="224" y="817" width="2862" height="43.1373" fill="black"/>
<rect x="224" y="861.863" width="2862" height="43.1373" fill="black"/>
<rect x="224" y="817" width="114.443" height="21.5686" fill="white"/>
<rect x="224" y="861.863" width="114.443" height="21.5686" fill="white"/>
<rect x="1139.55" y="817" width="114.443" height="21.5686" fill="white"/>
<rect x="1139.55" y="861.863" width="114.443" height="21.5686" fill="white"/>
<rect x="2055.09" y="817" width="114.443" height="21.5686" fill="white"/>
<rect x="2055.09" y="861.863" width="114.443" height="21.5686" fill="white"/>
<rect x="1941.57" y="838.57" width="114.443" height="21.5686" fill="white"/>
<rect x="1941.57" y="883.43" width="114.443" height="21.5686" fill="white"/>
<rect x="1025.1" y="838.57" width="114.443" height="21.5686" fill="white"/>
<rect x="1025.1" y="883.43" width="114.443" height="21.5686" fill="white"/>
<rect x="567.33" y="838.57" width="114.443" height="21.5686" fill="white"/>
<rect x="567.33" y="883.43" width="114.443" height="21.5686" fill="white"/>
<rect x="681.773" y="817" width="114.443" height="21.5686" fill="white"/>
<rect x="681.773" y="861.863" width="114.443" height="21.5686" fill="white"/>
<rect x="1597.32" y="817" width="114.443" height="21.5686" fill="white"/>
<rect x="1597.32" y="861.863" width="114.443" height="21.5686" fill="white"/>
<rect x="2512.87" y="817" width="114.443" height="21.5686" fill="white"/>
<rect x="2512.87" y="861.863" width="114.443" height="21.5686" fill="white"/>
<rect x="2399.34" y="838.57" width="114.443" height="21.5686" fill="white"/>
<rect x="2399.34" y="883.43" width="114.443" height="21.5686" fill="white"/>
<rect x="1482.88" y="838.57" width="114.443" height="21.5686" fill="white"/>
<rect x="1482.88" y="883.43" width="114.443" height="21.5686" fill="white"/>
<rect x="338.443" y="838.57" width="114.443" height="21.5686" fill="white"/>
<rect x="338.443" y="883.43" width="114.443" height="21.5686" fill="white"/>
<rect x="452.887" y="817" width="114.443" height="21.5686" fill="white"/>
<rect x="452.887" y="861.863" width="114.443" height="21.5686" fill="white"/>
<rect x="1368.43" y="817" width="114.443" height="21.5686" fill="white"/>
<rect x="1368.43" y="861.863" width="114.443" height="21.5686" fill="white"/>
<rect x="2283.98" y="817" width="114.443" height="21.5686" fill="white"/>
<rect x="2283.98" y="861.863" width="114.443" height="21.5686" fill="white"/>
<rect x="2170.45" y="838.57" width="114.443" height="21.5686" fill="white"/>
<rect x="2170.45" y="883.43" width="114.443" height="21.5686" fill="white"/>
<rect x="1253.99" y="838.57" width="114.443" height="21.5686" fill="white"/>
<rect x="1253.99" y="883.43" width="114.443" height="21.5686" fill="white"/>
<rect x="796.217" y="838.57" width="114.443" height="21.5686" fill="white"/>
<rect x="796.217" y="883.43" width="114.443" height="21.5686" fill="white"/>
<rect x="910.66" y="817" width="114.443" height="21.5686" fill="white"/>
<rect x="910.66" y="861.863" width="114.443" height="21.5686" fill="white"/>
<rect x="1826.21" y="817" width="114.443" height="21.5686" fill="white"/>
<rect x="1826.21" y="861.863" width="114.443" height="21.5686" fill="white"/>
<rect x="2741.75" y="817" width="114.443" height="21.5686" fill="white"/>
<rect x="2741.75" y="861.863" width="114.443" height="21.5686" fill="white"/>
<rect x="2628.23" y="838.57" width="114.443" height="21.5686" fill="white"/>
<rect x="2628.23" y="883.43" width="114.443" height="21.5686" fill="white"/>
<rect x="2857.11" y="838.57" width="114.443" height="21.5686" fill="white"/>
<rect x="2857.11" y="883.43" width="114.443" height="21.5686" fill="white"/>
<rect x="2971.56" y="817" width="114.443" height="21.5686" fill="white"/>
<rect x="2971.56" y="861.863" width="114.443" height="21.5686" fill="white"/>
<rect x="1711.76" y="838.57" width="114.443" height="21.5686" fill="white"/>
<rect x="1711.76" y="883.43" width="114.443" height="21.5686" fill="white"/>
<defs>
<linearGradient id="paint0_linear" x1="1651" y1="150" x2="1651.25" y2="1225.5" gradientUnits="userSpaceOnUse">
<stop stop-color="#393737"/>
<stop offset="1" stop-color="#0C0B0B" stop-opacity="0.3"/>
</linearGradient>
</defs>
</svg>
